<?xml version="1.0" standalone="no"?>
<!DOCTYPE svg PUBLIC "-//W3C//DTD SVG 20010904//EN"
 "http://www.w3.org/TR/2001/REC-SVG-20010904/DTD/svg10.dtd">
<svg version="1.0" xmlns="http://www.w3.org/2000/svg"
 width="636.000000pt" height="900.000000pt" viewBox="0 0 636.000000 900.000000"
 preserveAspectRatio="xMidYMid meet">

<g transform="translate(0.000000,900.000000) scale(0.100000,-0.100000)"
fill="#000000" stroke="none">
<path d="M5235 8800 c-45 -8 -45 -37 0 -46 61 -11 72 -36 92 -209 3 -22 7
-182 10 -355 5 -329 -6 -569 -29 -617 -8 -17 -30 -36 -56 -47 -27 -13 -42 -26
-42 -38 0 -17 15 -18 228 -20 439 -5 410 -10 509 77 98 86 193 264 213 401 21
150 9 333 -31 454 -67 204 -170 334 -302 380 -48 17 -89 20 -309 23 -139 2
-266 0 -283 -3z m455 -86 c67 -27 129 -138 154 -276 41 -224 43 -453 6 -636
-39 -187 -97 -262 -203 -262 -64 0 -62 -23 -62 594 0 309 3 569 7 579 9 21 45
22 98 1z"/>
<path d="M300 8780 c-129 -5 -135 -6 -138 -27 -2 -17 3 -23 27 -28 50 -11 51
-12 150 -340 31 -101 140 -564 197 -835 14 -63 28 -118 33 -123 5 -5 21 -7 37
-5 26 3 30 9 50 83 12 44 40 159 63 255 140 593 129 550 141 550 6 0 10 -8 10
-19 0 -16 58 -270 81 -356 4 -16 32 -127 62 -245 71 -284 62 -260 103 -260 23
0 37 6 41 17 24 63 160 574 192 723 69 318 84 383 102 445 28 94 30 97 70 110
23 8 34 18 34 31 0 17 -9 19 -99 22 -94 3 -126 -5 -126 -29 0 -5 16 -17 36
-26 30 -15 35 -21 30 -43 -3 -14 -10 -50 -16 -80 -11 -62 -71 -310 -100 -410
-10 -36 -26 -91 -35 -124 -18 -66 -28 -64 -44 9 -6 28 -21 84 -32 125 -11 41
-27 102 -35 135 -16 62 -74 349 -74 364 0 4 18 15 41 24 50 20 47 39 -7 49
-49 9 -321 10 -363 2 -43 -9 -42 -39 3 -54 35 -11 45 -28 83 -140 16 -45 14
-60 -17 -195 -5 -22 -21 -94 -36 -160 -31 -142 -54 -227 -63 -237 -4 -5 -13
20 -20 55 -18 84 -98 419 -116 487 -8 31 -18 84 -21 117 l-7 62 37 17 c36 18
47 41 24 48 -26 8 -166 11 -298 6z"/>
<path d="M2443 8771 c-14 -14 -14 -16 3 -26 39 -21 84 -77 95 -118 13 -49 13
-801 0 -966 l-8 -104 -42 -39 c-64 -61 -60 -65 88 -73 71 -4 134 -4 140 0 23
14 9 35 -41 62 l-53 28 -5 450 c-3 248 -3 467 -1 488 l3 39 45 -69 c25 -37 59
-90 75 -118 15 -27 47 -81 69 -120 22 -38 44 -77 50 -85 5 -8 29 -51 52 -95
37 -68 237 -436 297 -545 21 -40 61 -57 94 -42 l23 10 -5 494 c-4 517 4 700
34 745 8 14 29 29 45 35 25 8 30 15 27 37 l-3 26 -120 3 c-137 3 -165 -1 -165
-26 0 -26 20 -42 51 -42 39 0 49 -19 59 -117 12 -113 13 -653 1 -653 -12 0
-33 34 -85 133 -140 269 -275 521 -309 577 -22 36 -47 77 -56 92 -10 18 -25
28 -41 29 -14 1 -87 2 -163 4 -115 2 -141 -1 -154 -14z"/>
<path d="M3471 8781 c-7 -5 -10 -26 -7 -57 2 -27 4 -100 5 -161 1 -102 3 -113
19 -113 15 0 20 14 31 75 20 121 91 195 188 195 l41 0 6 -72 c9 -115 15 -820
9 -962 -7 -144 -13 -156 -85 -178 -26 -8 -38 -17 -38 -30 0 -17 12 -18 253
-16 214 3 252 5 252 18 0 8 -13 19 -30 23 -50 15 -59 22 -78 58 -18 32 -18 64
-13 588 3 320 9 558 15 564 15 15 107 -3 143 -26 46 -32 71 -80 77 -155 4 -46
11 -68 23 -76 9 -5 20 -7 23 -4 4 4 6 72 6 152 l-2 146 43 -6 c24 -3 53 -12
65 -20 41 -26 45 -84 41 -619 -3 -476 -4 -502 -23 -539 -14 -29 -30 -43 -55
-51 -24 -8 -36 -19 -38 -34 l-4 -23 396 3 c342 4 397 6 401 19 2 8 11 69 19
135 27 223 27 232 11 245 -20 17 -22 14 -44 -66 -36 -132 -84 -210 -151 -244
-27 -14 -179 -18 -217 -6 -22 7 -23 13 -23 99 0 51 -2 169 -4 263 -2 95 0 177
4 184 5 9 20 10 44 6 59 -11 78 -57 101 -238 6 -47 28 -69 49 -48 15 15 11
627 -5 646 -20 24 -30 2 -40 -84 -14 -122 -41 -173 -105 -191 -55 -15 -54 -21
-54 274 0 317 -11 291 119 279 98 -8 145 -33 188 -98 24 -37 33 -64 38 -115 8
-85 10 -91 34 -91 15 0 22 9 26 33 8 45 1 299 -8 315 -13 19 -756 17 -783 -2
-10 -8 -23 -11 -29 -6 -13 10 -818 20 -834 11z"/>
<path d="M1936 8771 c-27 -6 -31 -14 -62 -111 -67 -214 -83 -268 -114 -385
-18 -66 -41 -151 -51 -190 -11 -38 -26 -97 -35 -130 -82 -319 -119 -425 -158
-451 -14 -9 -26 -25 -26 -35 0 -18 9 -19 136 -19 133 0 135 0 132 22 -2 16
-16 26 -53 38 -27 9 -51 23 -53 32 -3 14 54 308 61 314 6 6 61 8 168 6 l106
-2 41 -127 c64 -202 64 -203 1 -223 -46 -15 -70 -46 -41 -53 9 -2 103 -3 207
-3 186 1 190 1 193 22 2 16 -4 24 -27 32 -31 11 -35 19 -87 217 -9 33 -22 80
-29 105 -15 52 -40 146 -56 210 -102 390 -207 744 -221 739 -2 -1 -16 -4 -32
-8z m-21 -693 c19 -64 35 -121 35 -127 0 -7 -34 -11 -100 -11 -55 0 -100 4
-100 9 0 9 74 306 87 346 6 20 6 20 78 -217z"/>
<path d="M6345 7970 c3 -5 8 -10 11 -10 2 0 4 5 4 10 0 6 -5 10 -11 10 -5 0
-7 -4 -4 -10z"/>
<path d="M0 7370 c0 -5 7 -10 15 -10 8 0 15 5 15 10 0 6 -7 10 -15 10 -8 0
-15 -4 -15 -10z"/>
<path d="M539 7163 c-4 -537 -5 -3737 -1 -3841 l5 -132 2691 2 2691 3 0 2040
-1 2040 -2692 3 -2692 2 -1 -117z m1531 68 c0 -6 12 -6 31 1 33 11 49 4 31
-14 -14 -14 -16 -32 -3 -24 9 6 71 -58 71 -72 0 -13 114 -129 133 -135 16 -6
42 -52 39 -69 -1 -4 4 -5 11 -3 13 5 67 -73 67 -96 0 -11 -2 -11 -11 1 -8 12
-10 12 -8 -5 3 -36 -1 -53 -13 -67 -22 -23 -78 -142 -78 -165 0 -13 -5 -23
-11 -23 -17 0 -41 -29 -33 -41 4 -7 3 -9 -3 -6 -6 4 -19 0 -29 -8 -15 -12 -16
-16 -5 -24 16 -11 -3 -26 -21 -15 -8 5 -9 -5 -3 -37 4 -24 10 -71 14 -104 6
-58 7 -60 41 -72 19 -7 53 -12 75 -13 46 0 71 -13 61 -29 -4 -6 -2 -11 3 -11
6 0 11 5 11 10 0 14 73 13 87 -1 6 -6 9 -17 7 -24 -3 -7 -1 -16 5 -20 12 -7
41 17 41 34 0 14 13 14 28 -1 9 -9 15 -8 26 7 7 10 20 16 28 12 13 -4 14 -14
7 -51 -5 -25 -6 -52 -3 -60 3 -8 1 -17 -5 -21 -6 -3 -11 -22 -11 -41 0 -22 -6
-37 -15 -40 -11 -5 -13 -10 -5 -19 13 -16 2 -124 -15 -145 -7 -8 -15 -35 -19
-58 -7 -45 -24 -72 -48 -72 -20 -1 11 -17 50 -25 26 -5 32 -3 32 10 0 13 6 11
33 -9 37 -28 91 -34 117 -13 16 13 45 67 42 80 -1 4 7 7 18 7 14 0 21 9 26 37
6 31 8 34 15 18 13 -35 10 -63 -9 -69 -10 -3 -25 -18 -34 -33 -13 -24 -14 -30
-2 -40 16 -16 28 -17 18 -2 -4 8 0 8 15 0 11 -7 21 -21 21 -32 0 -34 19 -60
43 -57 17 2 24 -6 38 -41 l16 -45 28 43 c31 51 25 61 -42 61 -23 0 -45 5 -49
12 -10 16 33 48 66 48 44 0 60 10 74 44 7 18 29 50 47 71 31 35 89 132 156
261 19 39 35 55 62 66 85 34 106 38 166 28 33 -5 61 -10 63 -10 1 0 2 -7 2
-15 0 -8 3 -15 8 -15 4 0 20 -18 36 -39 17 -23 34 -37 42 -34 9 3 14 -2 14
-15 0 -12 9 -23 20 -27 11 -3 19 -11 17 -18 -1 -6 7 -13 18 -15 34 -7 53 -32
59 -80 4 -26 12 -62 17 -80 8 -23 8 -37 0 -46 -6 -7 -8 -15 -5 -19 3 -3 -3
-10 -14 -16 -15 -8 -23 -6 -37 9 -19 21 -55 27 -55 9 0 -6 9 -24 21 -40 15
-22 25 -27 36 -20 42 23 104 -28 107 -88 2 -39 1 -41 -32 -47 -46 -9 -86 6
-90 33 -2 12 -14 33 -27 47 -13 14 -21 26 -18 26 15 0 -69 58 -108 74 -24 10
-59 25 -76 33 -18 7 -61 16 -95 19 -51 5 -72 2 -113 -16 -81 -35 -110 -70 -57
-70 21 0 24 -2 12 -10 -8 -5 -28 -10 -44 -10 l-29 0 21 -23 c25 -26 20 -37
-15 -37 -12 0 -23 -5 -23 -11 0 -5 4 -7 10 -4 7 4 9 -50 7 -157 -2 -150 0
-165 18 -190 27 -35 105 -81 183 -107 53 -18 69 -20 103 -11 22 6 50 10 62 8
15 -2 23 3 25 17 4 22 80 105 97 105 9 0 46 -169 45 -207 0 -6 -17 -28 -37
-49 -21 -20 -37 -40 -36 -44 1 -4 -17 -3 -40 3 -54 12 -166 11 -235 -4 -62
-12 -102 -45 -102 -82 0 -21 6 -26 38 -29 20 -3 45 -8 55 -12 12 -6 17 -4 17
7 0 8 -6 17 -12 20 -10 4 -10 7 0 18 9 9 43 15 101 17 88 4 88 4 93 -22 7 -34
3 -36 -53 -36 -26 0 -50 -4 -54 -9 -3 -6 16 -22 42 -37 75 -43 97 -63 101 -91
2 -21 0 -24 -10 -16 -17 15 -50 19 -65 10 -7 -5 -13 -24 -13 -42 0 -30 -6 -39
-42 -61 -49 -31 -95 -46 -103 -33 -10 16 -105 10 -136 -8 -26 -15 -28 -21 -23
-53 4 -19 13 -42 20 -51 8 -8 14 -19 14 -23 0 -16 48 -52 89 -67 63 -22 71
-39 38 -82 -15 -20 -27 -47 -27 -61 0 -39 -59 -70 -139 -72 -36 -2 -70 1 -76
5 -5 5 -21 11 -35 15 -36 10 -129 121 -169 202 -51 102 -71 190 -71 310 0 59
6 118 13 140 24 69 28 130 10 146 -13 10 -17 10 -20 1 -3 -7 -14 -13 -25 -13
-28 0 -105 -46 -118 -70 -6 -11 -17 -20 -25 -20 -27 0 -55 -38 -55 -75 0 -38
-18 -53 -69 -57 -17 -1 -33 -8 -36 -16 -3 -10 -15 -12 -37 -7 -26 5 -30 4 -18
-5 12 -9 11 -10 -7 -5 -15 4 -29 -1 -42 -14 -12 -12 -27 -21 -35 -21 -8 0 -45
-18 -82 -40 -38 -22 -75 -40 -84 -40 -8 0 -44 -11 -80 -24 -36 -13 -90 -29
-120 -36 -124 -26 -207 -65 -264 -121 -16 -16 -44 -36 -62 -45 -46 -22 -128
-105 -143 -145 -7 -19 -30 -74 -52 -124 -21 -49 -39 -96 -39 -103 0 -7 -11
-34 -25 -61 -13 -27 -22 -51 -19 -53 2 -3 -2 -11 -11 -18 -8 -7 -15 -18 -15
-24 0 -10 -26 -49 -117 -179 -15 -22 -28 -55 -29 -75 -3 -49 -14 -93 -30 -117
-8 -11 -14 -25 -14 -32 0 -6 -12 -31 -27 -55 -16 -24 -33 -52 -39 -63 -6 -11
-21 -25 -32 -31 -12 -6 -19 -14 -15 -17 3 -4 -107 -7 -245 -7 l-251 0 0 1082
c0 655 4 1087 9 1093 6 7 6 24 0 44 -5 19 -9 397 -10 912 l0 879 750 0 c466 0
750 -4 750 -9z m610 -32 c0 -22 -4 -48 -9 -58 -19 -34 -36 -169 -28 -226 2
-16 -4 -20 -28 -20 -25 0 -30 5 -36 32 -9 46 -33 78 -68 93 -17 7 -31 16 -31
21 0 5 -16 17 -36 27 -25 13 -33 21 -25 27 9 5 3 16 -21 39 -31 29 -58 74 -58
96 0 6 69 10 170 10 l170 0 0 -41z m521 -16 c1 -44 3 -52 9 -33 4 14 8 40 9
58 1 23 6 32 19 32 16 0 17 -17 13 -235 -3 -235 0 -265 32 -265 11 0 3 418 -9
473 l-6 27 296 0 c163 0 296 -2 296 -5 0 -2 -7 -30 -15 -62 -19 -74 -19 -201
0 -227 14 -18 13 -51 -1 -141 -4 -28 -3 -29 13 -13 13 13 18 44 24 130 4 62
12 154 18 203 6 50 11 96 11 103 0 6 9 12 21 12 19 0 20 -4 15 -52 -3 -29 -8
-100 -12 -156 -3 -57 -12 -147 -19 -200 -8 -53 -13 -99 -13 -102 2 -21 -5 -26
-31 -22 -17 2 -32 -1 -37 -10 -8 -13 -9 -17 -12 -49 -2 -14 -19 -16 -125 -15
-120 1 -152 -5 -272 -46 -36 -12 -128 -27 -134 -21 -3 2 -4 21 -3 42 2 28 -2
40 -14 45 -14 6 -16 0 -12 -38 4 -32 2 -46 -8 -50 -19 -7 -24 5 -18 42 3 19 1
32 -5 32 -6 0 -11 -19 -11 -42 0 -37 -5 -47 -41 -80 -23 -21 -45 -35 -50 -32
-5 3 -9 -2 -9 -11 0 -9 -18 -38 -41 -64 -22 -27 -44 -61 -48 -77 -4 -16 -12
-28 -17 -26 -12 3 -15 160 -3 168 14 8 10 60 -5 73 -11 9 -16 9 -22 0 -4 -7
-3 -14 3 -16 18 -6 -1 -58 -20 -57 -16 2 -22 -9 -18 -30 1 -5 -13 2 -31 16
-31 24 -33 29 -30 77 2 28 7 64 11 79 4 14 4 48 0 75 -7 39 -4 56 11 85 22 41
26 113 9 177 -35 136 -31 114 -44 223 l-7 62 166 0 166 0 1 -57z m-869 -59 c7
-9 25 -28 41 -42 15 -15 27 -31 27 -37 0 -5 16 -25 35 -44 19 -19 33 -37 30
-39 -3 -3 -17 7 -31 21 -15 15 -30 27 -35 27 -10 0 -99 109 -99 121 0 14 18
10 32 -7z m2159 -86 c6 -10 21 -23 34 -28 22 -8 24 -15 27 -87 l3 -77 45 -11
c35 -8 46 -16 48 -33 2 -12 -2 -22 -8 -22 -14 0 -80 -47 -101 -73 -9 -11 -14
-30 -11 -44 3 -14 -1 -29 -8 -33 -9 -6 -8 -13 4 -32 15 -23 25 -26 108 -32 50
-4 99 -11 108 -16 18 -10 32 -81 20 -100 -8 -13 -142 -4 -189 11 -28 10 -36 9
-45 -3 -12 -15 -90 -58 -108 -58 -10 0 -8 22 8 78 6 20 3 22 -31 22 -28 0 -36
3 -32 14 4 10 -3 17 -22 21 l-28 6 16 35 c14 32 18 34 51 28 44 -8 47 -11 26
-27 -17 -13 -13 -47 6 -47 5 0 6 -5 2 -11 -4 -7 -1 -10 7 -7 9 3 14 21 15 50
0 25 4 52 7 62 4 10 1 16 -8 16 -17 0 -20 36 -5 74 13 35 -14 49 -80 40 -41
-5 -51 -4 -56 10 -3 9 -14 16 -23 17 -9 0 -11 3 -4 5 6 3 25 -2 42 -10 37 -20
41 -20 41 -1 0 8 7 15 15 15 22 0 41 40 24 51 -10 6 -8 9 8 9 28 0 37 16 35
58 -2 19 3 50 9 70 7 20 12 48 11 64 -1 31 21 29 39 -4z m-1862 -232 c9 -11 7
-15 -7 -18 -12 -4 -18 1 -19 13 -2 22 10 25 26 5z m1261 -176 c0 -5 -4 -10
-10 -10 -5 0 -10 5 -10 10 0 6 5 10 10 10 6 0 10 -4 10 -10z m355 -210 c-3 -5
-2 -10 3 -10 5 0 12 -9 15 -20 4 -16 14 -20 49 -20 69 0 73 -9 32 -68 -21 -30
-45 -52 -55 -52 -9 0 -24 -2 -31 -5 -19 -7 -42 153 -26 173 12 14 22 16 13 2z
m-1290 -234 c-1 -12 -3 -30 -5 -41 -1 -11 -4 -15 -7 -7 -2 6 -9 12 -14 12 -6
0 -6 -8 1 -19 6 -12 7 -28 1 -43 -7 -17 -10 -19 -14 -8 -10 28 -14 95 -6 110
4 8 10 24 14 34 5 18 6 18 19 1 7 -10 12 -28 11 -39z m2524 -3 c0 -10 -4 -27
-9 -38 -7 -16 -9 -13 -9 18 -1 20 4 37 9 37 6 0 10 -8 9 -17z m-2586 -122 c2
-11 -1 -31 -9 -46 -7 -14 -11 -32 -7 -40 3 -9 -1 -15 -10 -15 -25 0 -31 20
-12 40 11 12 13 20 6 25 -15 8 -14 33 2 49 15 17 23 13 30 -13z m-243 -315 c0
-3 -4 -8 -10 -11 -5 -3 -10 -1 -10 4 0 6 5 11 10 11 6 0 10 -2 10 -4z m655
-160 c11 -2 20 -8 19 -14 -1 -7 -2 -22 -3 -34 -2 -39 -18 -55 -39 -42 -21 14
-52 1 -52 -21 0 -8 -7 -15 -15 -15 -23 0 -19 68 6 109 16 27 24 32 42 26 12
-4 31 -8 42 -9z m2093 -98 c24 -24 3 -196 -25 -205 -25 -9 -36 136 -15 190 13
30 22 33 40 15z m293 -215 c2 -36 2 -34 -7 -58 -6 -16 -3 -15 14 5 18 21 23
23 32 10 6 -8 9 -40 8 -70 -1 -44 -6 -59 -25 -73 -13 -10 -31 -17 -40 -15 -22
4 -29 28 -8 28 13 0 15 5 10 18 -5 9 -8 28 -9 42 -1 14 -14 37 -30 53 l-30 27
29 30 c36 37 55 38 56 3z m187 -98 c3 -52 1 -57 -12 -45 -20 16 -23 114 -3
108 7 -3 13 -27 15 -63z m-55 -135 c-3 -11 -13 -20 -22 -19 -10 0 -11 2 -3 6
6 2 12 11 12 19 0 8 4 14 9 14 5 0 7 -9 4 -20z m57 -7 c0 -20 -3 -24 -11 -16
-7 7 -9 19 -6 27 10 24 17 19 17 -11z m9 -980 c0 -67 -3 -124 -7 -127 -4 -2
-35 21 -67 53 -33 32 -80 71 -105 89 -25 17 -62 47 -83 66 l-38 36 3 92 3 93
55 8 c30 5 89 8 132 7 53 -1 79 3 85 12 9 15 20 -142 22 -329z m-357 -134 c30
-16 78 -67 78 -84 0 -7 -2 -20 -6 -28 -9 -24 -64 32 -64 65 0 24 -4 28 -30 28
-29 0 -38 9 -23 23 9 10 21 9 45 -4z m-2393 -55 c14 -11 19 -20 13 -26 -12
-12 -52 11 -52 29 0 17 11 16 39 -3z m1121 1 c0 -9 -9 -15 -22 -15 -21 0 -21
0 -2 15 24 18 24 18 24 0z m85 -15 c3 -6 -1 -7 -9 -4 -18 7 -21 14 -7 14 6 0
13 -4 16 -10z m265 -15 c0 -17 -2 -18 -24 -9 -23 9 -20 24 4 24 11 0 20 -7 20
-15z m40 -5 c0 -5 -7 -10 -15 -10 -8 0 -15 5 -15 10 0 6 7 10 15 10 8 0 15 -4
15 -10z m-411 -66 c5 3 14 -1 21 -9 8 -9 30 -15 55 -15 25 0 45 -5 47 -12 3
-8 13 -4 29 11 20 19 31 22 65 17 32 -4 44 -1 57 14 19 22 75 27 107 10 15 -8
24 -6 39 9 11 11 16 22 13 26 -4 3 1 3 10 0 9 -4 19 -13 22 -21 4 -11 15 -13
40 -9 28 6 36 3 45 -13 7 -13 17 -18 30 -15 31 8 148 -116 156 -165 3 -20 11
-55 18 -77 6 -22 11 -45 9 -52 -1 -6 7 -14 18 -18 36 -11 18 -36 -45 -63 -70
-29 -152 -36 -201 -16 -36 15 -94 19 -94 6 0 -14 -56 -72 -63 -65 -12 11 -8
23 8 23 8 0 15 6 15 13 0 6 3 22 6 34 5 19 1 22 -33 28 -86 13 -143 27 -143
35 0 4 -18 7 -40 6 -44 -2 -80 16 -80 40 0 19 -49 66 -61 58 -13 -8 -11 -58 3
-72 7 -7 8 -12 2 -12 -6 0 -16 -11 -21 -23 -20 -43 -124 -75 -110 -34 2 6 -3
18 -12 25 -14 12 -14 13 2 8 18 -6 67 12 67 24 0 4 -11 5 -25 2 -20 -3 -25 0
-25 17 0 11 5 21 10 21 6 0 10 6 10 14 0 20 -60 32 -71 15 -11 -18 -11 -32 0
-25 5 3 14 -1 21 -9 19 -23 -9 -28 -53 -10 -34 14 -50 35 -27 35 6 0 10 5 10
10 0 13 -26 13 -53 -2 -21 -11 -21 -11 -2 -19 17 -6 17 -8 3 -8 -10 -1 -18 -4
-19 -8 0 -5 -2 -16 -4 -26 -2 -9 0 -15 5 -12 4 3 36 2 70 -2 34 -3 56 -9 50
-13 -7 -4 -13 -24 -14 -44 -1 -38 -1 -38 59 -49 11 -2 19 -9 17 -15 -1 -7 2
-12 8 -12 6 0 10 -5 10 -11 0 -15 -142 -8 -148 9 -2 6 5 12 15 13 10 0 0 7
-22 16 -88 35 -165 76 -165 89 0 10 9 12 30 8 25 -6 30 -3 30 14 0 11 -7 22
-15 26 -26 10 -5 36 30 36 22 0 37 7 46 21 15 22 47 28 92 16 32 -9 37 7 5 18
-22 8 -22 8 5 12 30 5 34 15 12 33 -8 7 -15 21 -15 32 0 11 -11 29 -25 40 -33
26 -31 42 7 59 19 8 34 23 36 34 7 47 11 47 62 10 27 -20 54 -34 59 -31z
m1628 -26 c-3 -7 -5 -2 -5 12 0 14 2 19 5 13 2 -7 2 -19 0 -25z m-6 -19 c25
-15 35 -182 22 -382 l-6 -107 -36 0 c-33 0 -36 2 -36 29 0 16 3 27 8 24 10 -6
9 5 -4 29 -8 15 -8 19 0 14 6 -4 12 0 12 11 1 10 3 27 5 38 18 89 35 295 26
309 -3 6 -7 26 -8 46 -1 19 0 26 3 15 3 -11 9 -23 14 -26z m-1831 -19 c0 -5
-5 -10 -11 -10 -5 0 -7 5 -4 10 3 6 8 10 11 10 2 0 4 -4 4 -10z m-727 -148
c-3 -12 -9 -22 -14 -22 -12 0 -11 7 2 32 13 25 20 19 12 -10z m1947 -37 c-7
-8 -22 -15 -34 -14 -18 0 -16 3 9 14 39 18 40 18 25 0z m-930 -16 c0 -6 -4 -7
-10 -4 -5 3 -10 11 -10 16 0 6 5 7 10 4 6 -3 10 -11 10 -16z m843 14 c9 -8
-24 -32 -45 -33 -18 0 -24 20 -11 33 8 9 48 9 56 0z m-783 -83 c21 -24 33 -29
70 -30 60 -2 42 -8 -50 -17 -70 -7 -77 -6 -97 14 -23 24 -14 40 20 35 19 -4
23 14 5 21 -7 3 -4 6 7 6 12 1 32 -12 45 -29z m1033 -2 c-3 -6 -6 -24 -5 -39
1 -37 -4 -36 -23 1 -17 34 -19 44 -5 35 6 -3 10 1 10 9 0 10 6 13 15 10 8 -4
12 -11 8 -16z m-1528 -28 c3 -5 1 -10 -4 -10 -6 0 -11 5 -11 10 0 6 2 10 4 10
3 0 8 -4 11 -10z m1629 -26 c9 -8 16 -23 16 -32 -1 -14 -5 -12 -20 7 -30 35
-26 56 4 25z m-1259 -14 c-27 -4 -54 -3 -59 1 -6 5 15 8 50 8 l59 -2 -50 -7z
m955 -10 c0 -14 -35 -30 -69 -30 -22 0 -29 4 -25 14 8 21 94 36 94 16z m-1280
-30 c0 -5 -9 -10 -21 -10 -11 0 -17 5 -14 10 3 6 13 10 21 10 8 0 14 -4 14
-10z m45 1 c3 -5 1 -12 -5 -16 -5 -3 -10 1 -10 9 0 18 6 21 15 7z m325 -45 c0
-11 -19 -15 -25 -6 -3 5 1 10 9 10 9 0 16 -2 16 -4z m-293 -42 c-3 -3 -12 -4
-19 -1 -8 3 -5 6 6 6 11 1 17 -2 13 -5z"/>
<path d="M1950 7070 c0 -5 5 -10 11 -10 5 0 7 5 4 10 -3 6 -8 10 -11 10 -2 0
-4 -4 -4 -10z"/>
<path d="M2017 7056 c-10 -27 -8 -36 7 -36 22 0 27 15 12 35 -12 17 -13 17
-19 1z"/>
<path d="M1957 7000 c-10 -37 3 -60 34 -60 27 0 28 2 18 27 -20 53 -43 67 -52
33z"/>
<path d="M2060 6960 c-24 -8 -24 -8 -2 -9 12 -1 22 -5 22 -10 0 -5 -10 -16
-22 -24 -22 -15 -22 -15 17 -13 33 2 39 6 37 22 -7 47 -9 48 -52 34z"/>
<path d="M2290 6175 c-1 -5 -4 -28 -6 -50 -1 -22 -5 -56 -8 -75 -11 -67 -7
-120 13 -160 l19 -40 -26 -12 c-29 -14 -38 -39 -26 -66 4 -9 7 -20 6 -23 0 -3
-2 -39 -3 -80 -1 -41 -7 -78 -13 -82 -8 -6 -7 -10 2 -14 15 -6 16 -85 1 -100
-8 -8 -8 -17 0 -31 6 -11 11 -37 11 -57 0 -28 -5 -38 -22 -45 -18 -7 -19 -9
-5 -9 9 -1 17 -5 17 -10 0 -15 32 -22 45 -11 15 12 26 70 13 70 -4 0 -8 7 -8
15 0 8 4 15 9 15 12 0 7 63 -6 67 -12 4 15 63 30 63 4 0 7 5 7 10 0 6 -10 10
-21 10 -18 0 -19 2 -9 15 10 12 10 15 -3 15 -20 0 -29 50 -10 57 11 5 11 9 -4
25 -17 19 -17 20 0 29 9 6 17 16 17 24 0 19 20 29 32 17 7 -7 19 0 39 23 27
31 28 34 15 60 -13 26 -13 29 11 53 21 21 23 26 10 34 -9 4 -14 17 -12 28 4
19 2 19 -18 5 -31 -22 -56 -20 -50 5 3 11 10 20 15 20 6 0 8 14 5 34 -4 25 -1
36 10 40 11 5 13 10 4 20 -6 7 -8 16 -4 19 3 4 -3 7 -15 7 -14 0 -22 -6 -22
-17 0 -15 -2 -14 -14 3 -13 16 -13 21 0 35 8 8 14 24 13 35 0 10 -3 13 -6 7
-8 -20 -21 -15 -26 10 -2 12 -5 18 -7 12z m90 -255 c0 -5 -5 -10 -11 -10 -5 0
-7 5 -4 10 3 6 8 10 11 10 2 0 4 -4 4 -10z m-55 -140 c3 -5 -1 -10 -9 -10 -9
0 -16 5 -16 10 0 6 4 10 9 10 6 0 13 -4 16 -10z"/>
<path d="M2375 6170 c-16 -7 -17 -9 -3 -9 9 -1 20 4 23 9 7 11 7 11 -20 0z"/>
<path d="M2408 6113 c7 -3 16 -2 19 1 4 3 -2 6 -13 5 -11 0 -14 -3 -6 -6z"/>
<path d="M2525 6080 c-11 -17 5 -32 21 -19 8 6 14 15 14 20 0 12 -27 11 -35
-1z"/>
<path d="M2388 5983 c6 -2 18 -2 25 0 6 3 1 5 -13 5 -14 0 -19 -2 -12 -5z"/>
<path d="M2506 5814 c-9 -23 -8 -24 14 -24 13 0 20 7 20 20 0 24 -25 27 -34 4z"/>
<path d="M2328 5663 c7 -3 16 -2 19 1 4 3 -2 6 -13 5 -11 0 -14 -3 -6 -6z"/>
<path d="M2475 5630 c-3 -5 -1 -10 4 -10 6 0 11 5 11 10 0 6 -2 10 -4 10 -3 0
-8 -4 -11 -10z"/>
<path d="M2635 5620 c3 -5 10 -10 16 -10 5 0 9 5 9 10 0 6 -7 10 -16 10 -8 0
-12 -4 -9 -10z"/>
<path d="M2720 5550 c0 -5 7 -10 15 -10 8 0 15 5 15 10 0 6 -7 10 -15 10 -8 0
-15 -4 -15 -10z"/>
<path d="M2688 5493 c7 -3 16 -2 19 1 4 3 -2 6 -13 5 -11 0 -14 -3 -6 -6z"/>
<path d="M2680 5440 c19 -13 30 -13 30 0 0 6 -10 10 -22 10 -19 0 -20 -2 -8
-10z"/>
<path d="M2620 5330 c-22 -7 -21 -8 13 -9 20 -1 37 4 37 9 0 11 -14 11 -50 0z"/>
<path d="M2690 5330 c0 -6 7 -10 15 -10 8 0 15 2 15 4 0 2 -7 6 -15 10 -8 3
-15 1 -15 -4z"/>
<path d="M2285 5260 c3 -5 12 -7 20 -3 21 7 19 13 -6 13 -11 0 -18 -4 -14 -10z"/>
<path d="M2705 5247 c-28 -30 -30 -67 -4 -67 26 0 80 56 73 75 -9 21 -46 17
-69 -8z"/>
<path d="M2288 5224 c-5 -4 -8 -29 -8 -55 0 -26 -5 -51 -10 -54 -6 -4 -8 -14
-6 -23 3 -10 8 -48 10 -85 3 -38 7 -71 10 -74 7 -8 36 17 36 30 0 6 7 19 17
29 15 17 15 18 -5 18 -35 0 -35 19 0 29 l33 9 -32 1 c-35 1 -41 9 -22 28 9 9
8 18 -3 35 -11 17 -12 27 -5 39 12 19 -3 86 -15 73z"/>
<path d="M2522 5193 c-6 -3 -9 -9 -6 -15 4 -6 -1 -8 -15 -3 -15 5 -21 2 -21
-9 0 -23 33 -20 48 5 15 23 13 29 -6 22z"/>
<path d="M2550 5181 c0 -18 18 -21 30 -6 10 13 9 15 -9 15 -11 0 -21 -4 -21
-9z"/>
<path d="M2685 5113 c-11 -2 -30 -6 -41 -8 -26 -6 -38 -41 -17 -49 8 -3 23 -6
33 -6 10 0 20 -7 24 -15 3 -8 12 -15 21 -15 21 0 19 20 -2 21 -15 0 -15 2 2 8
11 5 23 7 28 4 4 -2 14 3 23 11 8 9 23 20 32 25 9 5 13 13 9 17 -5 5 -12 2
-16 -5 -5 -7 -14 -10 -20 -7 -6 4 -9 12 -6 17 6 9 -32 10 -70 2z"/>
<path d="M2727 4983 c-9 -15 18 -28 58 -30 22 -1 34 1 27 4 -10 4 -9 8 5 19
16 12 16 13 1 14 -9 0 -28 -4 -43 -10 -17 -7 -24 -7 -20 0 3 6 -1 10 -9 10 -8
0 -17 -3 -19 -7z"/>
<path d="M2281 4839 c-7 -22 -8 -36 -1 -44 7 -9 6 -16 -5 -25 -18 -15 -20 -36
-2 -43 9 -4 9 -8 -2 -15 -12 -9 -12 -14 3 -36 18 -29 36 -34 36 -11 0 9 9 15
23 15 15 0 18 3 9 8 -7 5 -10 16 -6 25 5 14 2 16 -12 11 -15 -6 -16 -4 -7 6 8
9 7 21 -4 48 -13 32 -13 37 1 47 14 11 14 14 -3 29 -18 16 -19 16 -30 -15z"/>
<path d="M2330 4771 c0 -6 4 -13 10 -16 6 -3 7 1 4 9 -7 18 -14 21 -14 7z"/>
<path d="M2945 6600 c-4 -17 -4 -49 0 -71 6 -33 9 -38 21 -28 10 8 11 14 4 19
-6 3 -11 30 -11 58 -1 29 -3 52 -5 52 -1 0 -5 -14 -9 -30z"/>
<path d="M4490 3450 c0 -5 7 -10 15 -10 8 0 15 5 15 10 0 6 -7 10 -15 10 -8 0
-15 -4 -15 -10z"/>
<path d="M6328 6853 c6 -2 18 -2 25 0 6 3 1 5 -13 5 -14 0 -19 -2 -12 -5z"/>
<path d="M13 6163 c9 -2 23 -2 30 0 6 3 -1 5 -18 5 -17 0 -22 -2 -12 -5z"/>
<path d="M8 6023 c7 -3 16 -2 19 1 4 3 -2 6 -13 5 -11 0 -14 -3 -6 -6z"/>
<path d="M6325 5750 c-3 -5 3 -10 14 -10 12 0 21 5 21 10 0 6 -6 10 -14 10 -8
0 -18 -4 -21 -10z"/>
<path d="M6330 5616 c0 -2 7 -6 15 -10 8 -3 15 -1 15 4 0 6 -7 10 -15 10 -8 0
-15 -2 -15 -4z"/>
<path d="M7 5603 c7 -2 19 -2 26 0 6 3 1 5 -13 5 -14 0 -19 -2 -13 -5z"/>
<path d="M6330 4980 c0 -5 7 -10 15 -10 8 0 15 5 15 10 0 6 -7 10 -15 10 -8 0
-15 -4 -15 -10z"/>
<path d="M6290 4870 c-11 -7 -4 -10 28 -10 23 0 42 5 42 10 0 13 -50 13 -70 0z"/>
<path d="M6337 4804 c-8 -8 1 -24 14 -24 5 0 9 7 9 15 0 15 -12 20 -23 9z"/>
<path d="M6330 4620 c19 -13 30 -13 30 0 0 6 -10 10 -22 10 -19 0 -20 -2 -8
-10z"/>
<path d="M13 3503 c9 -2 23 -2 30 0 6 3 -1 5 -18 5 -17 0 -22 -2 -12 -5z"/>
<path d="M6273 3383 c9 -2 23 -2 30 0 6 3 -1 5 -18 5 -16 0 -22 -2 -12 -5z"/>
<path d="M6325 3380 c-3 -5 3 -10 14 -10 12 0 21 5 21 10 0 6 -6 10 -14 10 -8
0 -18 -4 -21 -10z"/>
<path d="M6315 3330 c28 -12 45 -12 45 0 0 6 -15 10 -32 9 -28 0 -30 -2 -13
-9z"/>
<path d="M2740 2990 c-41 -10 -86 -59 -100 -110 -5 -19 -10 -73 -10 -119 0
-133 42 -200 137 -216 71 -11 140 39 163 119 34 123 -17 287 -100 320 -22 9
-44 16 -48 15 -4 -1 -23 -5 -42 -9z m105 -92 c22 -57 30 -172 15 -227 -26 -96
-96 -119 -137 -46 -42 74 -24 283 29 327 18 16 23 16 48 3 17 -9 34 -31 45
-57z"/>
<path d="M3971 2878 c-63 -250 -71 -272 -97 -294 -31 -26 -23 -34 37 -34 53 0
69 13 46 38 -13 14 -14 26 -5 65 l10 48 51 -3 c51 -3 52 -4 65 -43 10 -28 11
-48 4 -67 -5 -15 -7 -29 -4 -32 8 -8 122 -7 122 1 0 4 -9 16 -20 28 -11 12
-41 88 -66 171 -90 294 -97 300 -143 122z m63 -76 c9 -32 16 -61 16 -65 0 -4
-16 -7 -35 -7 -29 0 -35 4 -35 21 0 31 21 109 30 109 4 0 15 -26 24 -58z"/>
<path d="M4300 2991 c-12 -9 -13 -12 -1 -20 20 -13 30 -83 31 -219 0 -108 -3
-127 -19 -149 -37 -46 -21 -53 115 -53 110 0 125 2 130 18 3 9 14 38 24 64 10
26 15 50 10 53 -5 3 -25 -15 -46 -40 -41 -50 -73 -63 -111 -46 l-26 12 7 165
c4 96 12 174 19 184 6 11 9 22 6 25 -12 11 -124 16 -139 6z"/>
<path d="M5143 2992 c-62 -3 -73 -8 -53 -28 15 -15 50 -118 89 -269 44 -164
59 -180 87 -88 56 185 99 302 121 336 14 20 24 39 22 41 -11 9 -96 14 -109 6
-12 -7 -11 -12 4 -29 18 -19 17 -23 -11 -113 -16 -51 -33 -91 -39 -89 -11 4
-44 133 -44 173 0 15 5 30 10 33 14 9 13 22 -2 26 -7 2 -41 3 -75 1z"/>
<path d="M5495 2990 c-3 -5 1 -20 9 -32 11 -17 16 -61 17 -180 3 -136 1 -159
-14 -176 -25 -27 -21 -42 11 -42 15 -1 62 -3 104 -7 108 -8 120 -3 141 54 9
26 17 56 17 66 0 31 -28 18 -52 -25 -22 -41 -25 -43 -76 -46 l-52 -3 0 86 0
86 28 -3 c22 -2 28 -8 30 -35 2 -24 8 -33 22 -33 22 0 27 26 22 108 -4 56 -17
67 -32 28 -11 -31 -25 -39 -50 -31 -19 6 -21 14 -19 81 l2 74 38 0 c29 0 44
-7 64 -27 14 -16 28 -35 30 -45 6 -18 32 -31 38 -20 7 12 -23 116 -36 124 -18
11 -235 10 -242 -2z"/>
<path d="M1515 2976 c-2 -6 -25 -98 -50 -204 -36 -147 -52 -195 -66 -203 -36
-19 -19 -29 51 -29 73 0 89 12 45 32 -26 12 -30 30 -19 87 6 30 8 31 59 31
l53 0 15 -44 c14 -41 14 -45 -5 -64 -33 -32 -14 -45 59 -39 74 5 82 10 60 35
-17 19 -70 157 -118 308 -25 81 -32 92 -55 97 -14 2 -27 0 -29 -7z m40 -171
c8 -30 18 -61 21 -70 5 -12 -2 -15 -34 -15 -23 0 -43 3 -46 8 -7 11 26 142 35
136 4 -2 15 -29 24 -59z"/>
<path d="M1796 2981 c-3 -5 6 -17 20 -26 l26 -17 -4 -174 c-4 -158 -6 -175
-24 -189 -30 -23 -1 -35 91 -35 148 0 216 59 223 191 7 118 -37 212 -115 245
-36 16 -208 20 -217 5z m189 -38 c10 -3 28 -29 41 -57 43 -93 28 -267 -25
-296 -28 -15 -57 -12 -76 6 -14 14 -15 37 -10 177 4 89 9 165 11 169 6 10 36
10 59 1z"/>
<path d="M3050 2978 c0 -6 7 -19 15 -28 12 -13 17 -53 22 -169 6 -145 5 -153
-15 -181 -12 -16 -22 -34 -22 -40 0 -14 137 -13 146 2 4 6 -2 19 -14 29 -19
14 -22 28 -22 83 0 36 4 66 8 66 5 0 26 -42 48 -92 l39 -93 53 -3 c58 -3 65 7
28 41 -13 12 -36 55 -52 95 l-28 73 37 30 c46 38 56 83 31 136 -11 21 -30 43
-44 50 -33 17 -230 18 -230 1z m200 -47 c31 -58 -4 -135 -58 -129 -26 3 -27 5
-30 76 l-3 72 40 0 c30 0 43 -5 51 -19z"/>
<path d="M4760 2977 c0 -7 5 -18 10 -23 6 -6 11 -79 11 -178 1 -147 -1 -169
-16 -186 -10 -11 -15 -23 -11 -27 12 -12 120 -14 136 -3 13 9 12 13 -7 27 -22
15 -23 21 -23 157 0 77 4 157 9 176 5 19 10 42 12 50 3 12 -9 16 -58 18 -48 2
-63 0 -63 -11z"/>
<path d="M5944 2980 c-80 -32 -122 -202 -64 -255 16 -15 26 -17 48 -9 34 12
38 33 18 98 -15 48 -15 83 -1 106 9 14 51 12 63 -3 33 -40 22 -161 -26 -272
-80 -189 -139 -364 -153 -459 -14 -90 -7 -201 15 -244 21 -40 70 -72 113 -72
70 0 143 107 128 187 -10 56 -32 92 -60 99 -89 22 -127 -79 -45 -121 35 -18
38 -37 10 -65 -25 -25 -41 -25 -72 -1 -85 68 -51 323 75 559 109 206 127 368
46 436 -31 27 -58 31 -95 16z"/>
<path d="M550 2965 c0 -7 7 -18 16 -23 12 -7 16 -38 21 -173 5 -144 4 -167
-10 -181 -9 -9 -22 -18 -29 -21 -10 -3 -10 -8 -2 -17 8 -8 45 -11 122 -8 102
3 113 5 137 28 45 42 65 93 66 168 1 86 -7 116 -45 174 -38 59 -62 68 -182 68
-76 0 -94 -3 -94 -15z m188 -30 c53 -38 71 -242 26 -302 -24 -33 -69 -57 -90
-49 -11 4 -14 37 -14 179 0 96 3 177 7 180 11 12 48 8 71 -8z"/>
<path d="M980 2966 c0 -8 7 -19 17 -24 21 -12 31 -84 32 -230 1 -108 0 -114
-24 -136 -13 -13 -22 -26 -18 -29 3 -4 68 -7 144 -7 l139 0 5 25 c3 14 7 36
10 49 3 13 8 31 11 40 13 33 -22 15 -46 -24 -14 -23 -35 -43 -48 -47 -21 -5
-90 1 -98 9 -1 2 -5 36 -8 75 -4 58 -2 72 10 77 26 10 64 -5 64 -24 0 -25 20
-36 31 -19 5 8 9 42 9 77 0 48 -3 62 -15 62 -8 0 -15 -9 -15 -20 0 -23 -40
-46 -65 -36 -13 5 -15 19 -13 83 l3 78 33 3 c29 3 40 -4 84 -49 29 -30 53 -49
55 -43 2 6 -3 35 -10 65 l-14 54 -137 3 c-115 2 -136 0 -136 -12z"/>
<path d="M234 2899 c-40 -25 -58 -84 -52 -176 3 -59 11 -83 62 -183 76 -149
95 -221 103 -390 6 -151 -4 -207 -43 -247 -20 -20 -28 -22 -39 -13 -24 20 -19
59 9 70 40 15 42 86 2 112 -18 12 -63 9 -74 -5 -19 -22 -35 -105 -27 -143 15
-81 102 -111 176 -61 51 34 68 89 68 225 1 162 -18 238 -105 429 -42 89 -78
178 -81 197 -8 51 5 120 28 145 24 25 32 26 53 5 22 -21 20 -62 -4 -117 -11
-25 -17 -52 -14 -61 9 -24 50 -31 78 -12 58 38 40 184 -29 226 -40 25 -70 24
-111 -1z"/>
<path d="M6325 2390 c3 -5 13 -10 21 -10 8 0 14 5 14 10 0 6 -9 10 -21 10 -11
0 -17 -4 -14 -10z"/>
<path d="M6323 2333 c9 -2 23 -2 30 0 6 3 -1 5 -18 5 -16 0 -22 -2 -12 -5z"/>
<path d="M522 2074 c2 -11 13 -20 26 -22 l22 -3 0 -224 c0 -188 -2 -224 -15
-229 -30 -11 -4 -36 39 -36 51 0 76 14 58 32 -13 13 -15 154 -3 263 l6 60 27
-85 c15 -47 30 -100 34 -117 7 -35 27 -58 42 -49 5 3 12 28 15 55 3 28 19 101
34 163 l28 113 3 -200 c2 -169 0 -202 -13 -211 -23 -17 -7 -24 52 -24 56 0 66
9 33 31 -18 13 -20 27 -21 233 -1 219 -1 220 21 228 18 7 20 11 10 23 -17 20
-73 19 -97 -2 -14 -12 -29 -57 -47 -138 -15 -66 -29 -121 -31 -123 -1 -2 -11
18 -20 45 -29 81 -75 197 -84 211 -4 7 -34 16 -65 19 -53 6 -58 4 -54 -13z"/>
<path d="M1695 2076 c-69 -30 -100 -88 -120 -228 -11 -73 21 -204 60 -246 29
-32 37 -35 103 -40 60 -4 76 -2 92 13 22 20 27 74 8 93 -20 20 -28 14 -28 -21
0 -40 -15 -57 -51 -57 -59 0 -99 99 -99 245 0 80 3 98 28 146 24 47 31 54 60
57 38 4 62 -12 62 -39 0 -26 16 -24 23 3 8 30 -9 58 -48 74 -41 17 -51 17 -90
0z"/>
<path d="M1974 2080 c-30 -12 -83 -79 -94 -120 -6 -19 -10 -81 -10 -137 0
-172 50 -263 146 -263 58 0 97 35 126 115 25 71 35 220 19 280 -21 81 -124
149 -187 125z m103 -82 c25 -48 28 -63 28 -158 0 -183 -45 -278 -111 -235 -35
23 -48 85 -48 230 -1 117 1 134 22 173 19 35 27 42 52 42 26 0 33 -7 57 -52z"/>
<path d="M2235 2067 c-22 -19 -29 -33 -29 -62 0 -39 23 -66 133 -153 40 -32
41 -35 41 -93 0 -72 -25 -126 -68 -152 -30 -17 -31 -17 -46 5 -27 38 -19 78
17 91 18 7 23 32 8 41 -13 8 -111 -14 -111 -24 0 -5 6 -13 13 -17 8 -4 17 -26
20 -47 4 -23 18 -51 34 -68 25 -27 33 -29 80 -26 83 7 123 58 123 158 0 69
-26 116 -99 180 -59 50 -61 53 -61 101 0 36 4 49 14 49 32 0 46 -13 46 -41 0
-38 24 -38 40 0 18 44 10 66 -25 67 -17 1 -46 5 -66 9 -29 6 -40 3 -64 -18z"/>
<path d="M2840 2083 c-42 -16 -72 -71 -31 -58 17 5 20 -2 26 -71 4 -43 8 -141
9 -218 l1 -141 -28 -3 c-16 -2 -26 -8 -24 -15 6 -17 141 -11 178 8 16 9 45 39
64 68 80 122 58 325 -45 407 -31 24 -47 30 -86 29 -27 0 -56 -3 -64 -6z m134
-77 c24 -48 35 -257 17 -322 -10 -38 -52 -77 -66 -62 -8 8 -26 409 -19 420 13
21 50 2 68 -36z"/>
<path d="M3794 2072 c-17 -11 -44 -42 -60 -68 -28 -47 -29 -54 -29 -174 0
-117 2 -129 28 -183 32 -64 64 -87 124 -87 70 0 109 50 139 177 19 80 14 204
-9 249 -45 86 -131 124 -193 86z m116 -72 c21 -39 25 -60 28 -155 2 -93 -1
-120 -20 -174 -19 -54 -28 -66 -51 -72 -60 -16 -87 59 -87 242 0 145 26 213
79 207 19 -2 33 -15 51 -48z"/>
<path d="M4030 2074 c0 -9 7 -22 17 -29 11 -9 18 -36 24 -101 11 -132 11 -344
-1 -344 -5 0 -10 -9 -10 -20 0 -18 7 -20 59 -20 54 0 60 2 58 20 -1 11 -9 23
-19 26 -16 5 -18 21 -18 167 0 88 4 157 8 152 9 -11 16 -30 81 -225 40 -117
49 -135 69 -138 l23 -4 -3 251 c-3 236 -2 250 16 255 36 9 4 26 -50 26 -59 0
-68 -11 -31 -40 21 -17 22 -26 25 -187 l2 -168 -50 130 c-27 72 -64 159 -82
195 -32 63 -34 65 -76 68 -34 3 -42 0 -42 -14z"/>
<path d="M4668 2083 c-31 -4 -38 -8 -38 -26 0 -12 5 -29 10 -37 9 -13 12 -13
21 3 5 9 20 17 33 17 22 0 23 -5 30 -92 13 -196 5 -348 -21 -348 -22 0 -38 46
-25 75 12 26 3 39 -22 29 -33 -13 -32 -78 2 -116 17 -21 72 -33 106 -24 38 9
43 49 38 279 -4 187 -3 207 12 207 9 0 16 -7 16 -15 0 -8 7 -15 15 -15 22 0
19 47 -4 60 -19 10 -95 11 -173 3z"/>
<path d="M4989 2079 c-41 -15 -89 -90 -99 -157 -12 -74 1 -226 25 -275 27 -58
68 -87 122 -87 57 0 91 32 123 115 27 73 38 210 20 274 -24 90 -120 156 -191
130z m98 -66 c33 -60 43 -128 33 -228 -11 -110 -29 -166 -60 -182 -61 -31 -91
34 -98 209 -4 105 -2 134 13 170 23 58 33 68 64 68 21 0 32 -9 48 -37z"/>
<path d="M5267 2084 c-20 -6 -47 -54 -47 -84 0 -33 26 -64 96 -116 70 -51 84
-73 84 -134 0 -64 -33 -124 -82 -151 -24 -13 -48 15 -48 57 0 28 5 36 25 44
27 10 30 17 17 38 -13 20 -114 -4 -109 -26 2 -10 9 -16 15 -15 7 2 12 -9 12
-28 0 -63 43 -108 103 -109 78 0 123 46 134 139 9 75 -11 117 -90 192 -63 60
-70 71 -71 107 -1 49 5 56 39 48 22 -6 26 -12 23 -34 -4 -36 22 -36 40 1 18
38 8 64 -26 64 -15 0 -43 3 -62 6 -19 3 -43 3 -53 1z"/>
<path d="M5543 2077 c-42 -6 -63 -14 -63 -23 0 -8 8 -14 19 -14 17 0 19 -13
23 -212 3 -117 3 -219 0 -225 -2 -7 -13 -13 -23 -13 -23 0 -25 -16 -3 -24 9
-3 60 -6 114 -6 105 0 125 8 118 51 -4 32 -26 35 -34 5 -6 -27 -25 -32 -70
-20 -19 5 -22 15 -27 92 -3 48 -1 94 3 102 10 19 50 24 50 5 0 -7 7 -15 15
-19 12 -4 15 4 15 44 0 50 -11 64 -28 34 -5 -9 -18 -14 -33 -12 -24 3 -24 5
-24 103 l0 99 31 6 c42 9 74 -4 74 -31 0 -12 5 -19 13 -17 15 6 21 32 13 64
-6 22 -11 24 -64 23 -31 -1 -85 -6 -119 -12z"/>
<path d="M1101 2052 c-39 -55 -60 -131 -81 -288 -11 -88 -24 -160 -28 -162
-50 -19 -35 -42 28 -42 53 0 73 16 47 35 -18 13 -22 68 -11 163 l7 52 36 0
c20 0 42 -4 48 -8 8 -5 15 -44 19 -100 6 -80 5 -95 -10 -111 -26 -29 -15 -36
47 -33 l55 4 -4 31 c-2 18 -11 109 -19 202 -14 168 -24 218 -53 263 -20 31
-56 28 -81 -6z m48 -90 c6 -29 11 -69 11 -87 0 -34 -1 -35 -39 -35 -22 0 -43
4 -46 10 -6 10 14 100 35 154 14 37 25 25 39 -42z"/>
<path d="M1308 2073 c-33 -5 -39 -38 -8 -48 19 -6 20 -15 20 -221 0 -189 -2
-214 -16 -214 -9 0 -14 -6 -12 -12 3 -8 29 -14 71 -16 72 -3 81 4 52 42 -11
15 -15 49 -15 133 0 130 10 142 57 71 26 -38 28 -50 29 -142 l1 -101 33 -3
c37 -4 63 14 41 27 -9 6 -17 41 -22 105 -5 56 -16 114 -27 139 l-19 43 23 28
c41 47 28 142 -23 165 -23 10 -127 13 -185 4z m157 -108 c-7 -47 -11 -51 -47
-60 l-28 -7 0 70 c0 65 2 71 23 74 36 7 60 -28 52 -77z"/>
<path d="M3400 2065 c0 -9 6 -18 14 -21 9 -3 19 -33 26 -77 15 -92 88 -389 99
-400 16 -16 32 24 60 154 56 259 73 319 88 319 8 0 13 7 11 18 -2 12 -15 18
-42 20 -46 4 -67 -11 -38 -27 12 -6 19 -18 16 -28 -26 -123 -68 -284 -74 -288
-9 -5 -21 43 -47 192 -15 86 -15 94 0 111 31 34 21 42 -48 42 -52 0 -65 -3
-65 -15z"/>
<path d="M2534 1916 c-27 -27 -34 -42 -34 -74 0 -105 136 -156 200 -75 28 36
34 66 20 108 -15 45 -61 75 -113 75 -31 0 -46 -7 -73 -34z"/>
<path d="M3154 1916 c-48 -48 -48 -101 -1 -153 28 -30 40 -36 75 -36 52 0 89
24 109 71 32 76 -23 152 -110 152 -31 0 -46 -7 -73 -34z"/>
<path d="M5891 1773 c-53 -53 -66 -102 -65 -249 0 -158 21 -255 106 -509 41
-124 51 -163 52 -226 1 -63 -3 -81 -18 -98 -21 -24 -46 -27 -64 -9 -19 19 -14
42 13 68 53 50 11 136 -51 108 -65 -30 -53 -207 17 -243 67 -35 120 -2 143 88
19 75 6 156 -57 359 -70 226 -75 248 -87 343 -19 150 3 280 52 306 36 19 43
-4 19 -61 -25 -58 -21 -82 15 -98 62 -29 112 45 101 151 -5 62 -37 96 -95 104
-38 5 -45 2 -81 -34z"/>
<path d="M206 1751 c-44 -29 -60 -60 -61 -117 0 -63 27 -107 69 -112 53 -6 87
49 61 101 -17 34 -19 63 -6 71 18 12 40 -7 61 -49 26 -53 41 -243 30 -366 -16
-163 -74 -379 -142 -529 -56 -121 -78 -233 -78 -385 1 -218 61 -335 172 -335
32 0 47 7 74 34 19 19 34 41 34 50 0 9 5 16 11 16 6 0 8 7 5 16 -3 9 -9 39
-12 67 -9 80 -23 124 -47 152 -27 30 -75 41 -100 23 -40 -30 -37 -135 3 -161
26 -15 25 -33 -1 -40 -29 -8 -22 -51 9 -55 20 -3 22 1 22 37 0 29 4 41 14 41
19 0 29 -17 16 -25 -17 -11 -12 -55 7 -55 14 0 14 -2 -2 -20 -10 -11 -24 -20
-30 -20 -19 0 -65 51 -65 72 0 11 -5 16 -10 13 -6 -4 -10 -3 -9 2 1 4 -4 22
-11 38 -7 17 -15 88 -18 168 -4 111 -1 149 13 200 16 57 65 186 100 263 27 59
82 229 96 299 21 104 18 351 -5 440 -24 91 -45 134 -77 157 -36 27 -90 30
-123 9z m94 -1591 c0 -11 -7 -20 -15 -20 -15 0 -21 21 -8 33 12 13 23 7 23
-13z m56 0 c0 -11 -4 -20 -8 -20 -4 0 -8 9 -8 20 0 11 4 20 8 20 4 0 8 -9 8
-20z"/>
<path d="M786 1219 c-25 -20 -28 -27 -23 -68 2 -25 8 -54 12 -65 7 -17 4 -18
-36 -12 -109 16 -135 17 -114 5 77 -45 108 -102 109 -196 1 -58 -3 -77 -20
-100 -26 -34 -59 -45 -50 -15 9 29 -3 52 -28 52 -28 0 -46 -18 -46 -46 0 -46
81 -71 124 -39 12 9 42 15 78 15 56 0 58 -1 58 -25 0 -36 -26 -82 -51 -90 -26
-9 -35 0 -20 19 19 23 10 60 -16 64 -31 5 -63 -31 -63 -71 0 -47 34 -77 87
-77 56 0 89 41 102 129 6 44 8 46 46 52 89 15 124 121 60 185 -19 19 -23 31
-18 58 7 43 -18 61 -99 71 -53 6 -57 8 -63 36 -8 37 -3 43 38 43 28 1 32 5 35
32 5 54 -55 80 -102 43z m24 -205 c13 -33 13 -34 -5 -34 -8 0 -21 14 -30 30
-15 29 -15 30 5 30 13 0 24 -10 30 -26z m74 13 c21 -15 12 -47 -14 -47 -11 0
-22 12 -29 30 -9 26 -8 30 8 30 9 0 25 -6 35 -13z m-39 -130 c3 -18 6 -50 7
-72 3 -37 1 -40 -25 -43 -58 -7 -59 -3 -21 145 6 23 33 1 39 -30z m98 0 c31
-35 5 -107 -39 -107 -13 0 -19 19 -30 94 l-7 49 29 -7 c16 -4 37 -17 47 -29z"/>
<path d="M1298 1203 c-18 -5 -24 -45 -12 -77 9 -24 24 -19 24 8 0 19 7 26 30
31 34 7 70 -1 70 -17 0 -5 -20 -47 -45 -92 -25 -46 -45 -88 -45 -94 0 -7 11
-14 24 -18 13 -3 38 -21 56 -39 26 -26 34 -45 38 -83 8 -87 -34 -172 -85 -172
-22 0 -24 3 -21 48 3 41 1 47 -17 47 -26 0 -43 -62 -29 -103 9 -25 14 -27 73
-30 58 -3 66 -1 93 25 17 15 37 41 45 58 21 39 20 162 -1 203 -15 28 -64 76
-86 84 -5 1 11 44 36 94 39 76 45 94 35 111 -9 18 -20 21 -88 21 -43 -1 -86
-3 -95 -5z"/>
<path d="M1823 1195 c-39 -17 -79 -75 -92 -135 -6 -25 -11 -94 -11 -154 0
-135 19 -204 72 -260 35 -36 40 -38 83 -34 75 9 102 46 130 179 39 184 -3 379
-87 408 -40 14 -56 13 -95 -4z m96 -74 c19 -27 21 -43 21 -198 0 -155 -2 -172
-22 -213 -33 -64 -65 -66 -98 -8 -24 40 -25 51 -23 179 2 148 13 212 46 247
28 30 52 28 76 -7z"/>
<path d="M2160 1192 c-25 -12 -43 -34 -64 -75 -28 -54 -31 -70 -34 -182 -4
-107 -1 -131 18 -189 13 -41 35 -81 56 -103 32 -33 37 -35 81 -30 98 11 138
102 138 317 0 126 -2 139 -27 193 -21 45 -35 61 -62 72 -46 19 -63 19 -106 -3z
m107 -79 c18 -34 20 -54 19 -198 -2 -129 -6 -168 -20 -203 -31 -73 -90 -65
-117 15 -16 48 -8 329 10 363 38 72 77 80 108 23z"/>
<path d="M2509 1199 c-15 -5 -39 -28 -54 -49 -82 -119 -71 -409 19 -505 37
-39 73 -45 130 -21 62 26 96 139 99 326 1 106 -23 187 -67 229 -27 26 -88 35
-127 20z m102 -90 c19 -38 20 -55 17 -203 -3 -145 -6 -165 -26 -204 -20 -37
-27 -43 -50 -40 -20 2 -33 14 -50 48 -23 43 -23 52 -19 191 7 181 29 249 83
249 18 0 29 -11 45 -41z"/>
<path d="M2999 1199 c-126 -48 -150 -432 -35 -554 36 -38 67 -44 124 -24 64
22 101 137 103 321 2 115 -20 195 -65 237 -27 26 -88 35 -127 20z m101 -86
c20 -35 21 -47 18 -202 -3 -150 -5 -170 -26 -209 -20 -37 -27 -43 -50 -40 -20
2 -33 14 -50 48 -23 43 -23 52 -18 190 5 153 16 204 48 233 31 26 54 21 78
-20z"/>
<path d="M3340 1200 c-61 -24 -101 -125 -106 -270 -4 -113 13 -195 55 -263 49
-79 148 -75 197 9 27 46 53 184 54 280 0 68 -34 177 -68 215 -30 33 -88 46
-132 29z m99 -84 c19 -30 21 -49 21 -198 0 -150 -2 -168 -22 -208 -20 -38 -28
-45 -53 -45 -25 0 -34 7 -53 45 -23 43 -23 52 -18 185 7 154 16 200 46 233 29
31 55 27 79 -12z"/>
<path d="M3683 1195 c-39 -17 -79 -75 -92 -135 -6 -25 -11 -94 -11 -154 0
-135 19 -204 72 -260 35 -36 40 -38 83 -34 76 9 101 44 130 179 38 186 -2 379
-87 408 -40 14 -56 13 -95 -4z m103 -87 c18 -39 19 -58 14 -208 -5 -170 -14
-210 -52 -234 -23 -14 -47 0 -73 45 -18 30 -20 50 -18 170 2 148 13 212 46
247 33 35 60 29 83 -20z"/>
<path d="M4185 1203 c-64 -16 -109 -110 -120 -248 -12 -153 37 -311 103 -336
32 -13 97 -6 118 12 43 36 83 189 84 320 0 73 -34 182 -68 219 -27 29 -77 43
-117 33z m86 -85 c18 -30 20 -47 17 -208 -3 -155 -5 -179 -24 -210 -16 -27
-27 -35 -49 -35 -22 0 -33 8 -49 35 -19 31 -21 51 -20 175 1 160 6 197 34 243
14 22 27 32 45 32 18 0 31 -10 46 -32z"/>
<path d="M4513 1195 c-37 -16 -77 -73 -92 -131 -20 -74 -18 -252 3 -314 36
-107 72 -142 139 -137 77 6 105 43 131 169 40 192 0 387 -86 417 -40 14 -56
13 -95 -4z m100 -76 c14 -26 17 -57 17 -198 0 -153 -2 -170 -22 -211 -18 -35
-29 -45 -47 -45 -32 0 -61 41 -72 101 -11 54 -3 237 13 299 20 82 79 110 111
54z"/>
<path d="M4858 1199 c-28 -11 -67 -64 -87 -119 -7 -19 -15 -85 -18 -146 -5
-96 -3 -122 16 -182 36 -121 92 -161 179 -131 65 22 102 137 102 317 0 114
-22 199 -63 239 -26 26 -90 37 -129 22z m102 -86 c20 -35 21 -47 18 -202 -3
-150 -5 -170 -26 -209 -20 -37 -27 -43 -50 -40 -20 2 -33 14 -50 48 -22 43
-23 53 -19 195 2 83 10 163 16 180 30 75 76 86 111 28z"/>
<path d="M6332 821 c-11 -7 -10 -10 3 -15 23 -9 25 -8 25 9 0 17 -9 19 -28 6z"/>
<path d="M1610 670 c-12 -7 -12 -12 -2 -22 17 -17 15 -53 -3 -68 -8 -7 -15
-19 -15 -27 0 -24 39 4 57 42 27 56 4 101 -37 75z"/>
<path d="M2785 670 c-3 -5 -1 -19 5 -30 13 -24 5 -56 -15 -64 -14 -5 -22 -36
-9 -36 36 0 82 86 64 120 -11 21 -35 26 -45 10z"/>
<path d="M3954 669 c-3 -6 -1 -16 5 -22 17 -17 13 -45 -10 -68 -14 -14 -18
-24 -11 -31 14 -14 59 34 67 73 10 43 -30 81 -51 48z"/>
<path d="M5170 541 c0 -7 7 -20 16 -28 14 -14 15 -43 12 -204 -3 -165 -5 -189
-21 -207 -30 -32 -13 -42 74 -42 80 0 92 6 63 35 -13 13 -16 38 -15 138 1 155
11 268 24 285 16 20 3 25 -78 30 -54 3 -75 1 -75 -7z"/>
<path d="M5369 543 c0 -5 0 -100 1 -211 1 -173 -1 -208 -15 -229 -9 -14 -15
-26 -13 -28 7 -7 88 -9 94 -2 4 3 1 14 -7 23 -14 17 -22 253 -9 274 4 6 42
-62 86 -150 73 -148 81 -160 104 -158 l25 3 7 220 c5 121 12 227 17 236 12 21
4 29 -30 29 -31 0 -45 -15 -32 -33 5 -7 7 -64 4 -127 l-6 -115 -57 118 c-32
65 -58 122 -58 127 0 23 -109 45 -111 23z"/>
<path d="M5697 536 c-3 -8 1 -20 9 -26 22 -19 21 -376 -2 -401 -9 -10 -14 -25
-11 -34 5 -12 28 -15 131 -15 142 0 136 -4 136 96 0 73 -14 83 -31 22 -13 -52
-35 -78 -64 -78 -36 0 -45 19 -44 94 1 48 3 61 8 41 3 -16 13 -31 22 -33 21
-4 29 35 29 135 0 66 -2 74 -17 71 -10 -2 -19 -14 -21 -28 -2 -14 -7 -29 -11
-33 -12 -12 -20 72 -12 118 6 39 8 40 46 40 39 0 40 -1 50 -41 15 -62 30 -53
30 19 l0 62 -121 3 c-99 2 -123 0 -127 -12z"/>
<path d="M4110 537 c0 -2 7 -19 16 -37 24 -46 15 -381 -10 -406 -24 -23 -11
-34 40 -34 49 0 50 1 29 34 -16 24 -18 61 -8 176 l6 65 34 -130 c47 -180 54
-184 96 -50 13 44 35 114 48 155 l24 75 3 -135 c2 -128 2 -135 -19 -151 -35
-26 -14 -39 62 -39 62 0 69 2 69 20 0 11 -5 20 -11 20 -16 0 -7 386 9 402 28
28 13 39 -50 36 l-63 -3 -17 -60 c-18 -65 -54 -164 -63 -173 -9 -9 -12 -1 -38
107 -15 56 -31 109 -38 117 -10 12 -119 22 -119 11z"/>
<path d="M4635 433 c-57 -220 -88 -319 -106 -339 -24 -25 -16 -34 31 -34 43 0
54 8 38 27 -8 10 -8 27 1 68 12 55 13 55 50 55 35 0 39 -3 49 -39 15 -49 15
-78 0 -83 -7 -3 -9 -12 -5 -22 5 -12 13 -15 28 -11 11 4 74 7 140 7 65 1 119
5 119 9 0 5 -10 15 -22 23 -22 14 -23 20 -18 98 3 46 9 83 14 83 10 0 42 -87
57 -158 l11 -47 59 0 60 0 -19 28 c-11 15 -30 64 -42 110 l-23 83 28 29 c20
21 29 42 33 78 5 54 -17 115 -46 127 -26 11 -242 19 -242 10 0 -5 9 -18 20
-30 19 -20 21 -37 23 -202 2 -166 0 -183 -17 -202 -18 -19 -21 -20 -37 -5 -9
8 -19 25 -22 37 -2 12 -17 67 -32 122 -15 55 -37 140 -49 190 -31 128 -45 125
-81 -12z m373 55 c17 -22 22 -91 9 -128 -10 -30 -17 -35 -42 -35 -36 0 -40 17
-30 112 6 57 9 63 30 63 12 0 27 -6 33 -12z m-348 -157 c0 -5 3 -23 6 -40 6
-27 4 -31 -16 -31 -18 0 -21 4 -16 23 3 12 6 30 6 40 0 9 5 17 10 17 6 0 10
-4 10 -9z"/>
<path d="M1705 510 c3 -5 8 -10 11 -10 2 0 4 5 4 10 0 6 -5 10 -11 10 -5 0 -7
-4 -4 -10z"/>
<path d="M3068 481 c-2 -22 -1 -48 3 -58 5 -14 7 -13 12 8 7 21 9 22 20 8 7
-9 27 -20 45 -23 l32 -8 -2 54 c-1 47 -2 48 -5 13 -5 -49 -20 -67 -27 -34 -3
13 -7 33 -9 44 -3 12 -5 6 -6 -13 0 -19 -5 -31 -11 -27 -5 3 -7 19 -3 35 3 18
1 30 -5 30 -6 0 -17 3 -25 6 -11 4 -16 -5 -19 -35z m36 4 c-4 -8 -10 -15 -15
-15 -5 0 -9 7 -9 15 0 8 7 15 15 15 9 0 12 -6 9 -15z"/>
<path d="M1454 475 c-8 -44 -24 -46 -25 -2 -1 17 -3 24 -6 15 -6 -22 -33 -24
-33 -2 0 8 -4 12 -10 9 -5 -3 -10 -17 -10 -30 0 -13 5 -27 10 -30 6 -3 10 -1
10 4 0 6 7 11 15 11 8 0 15 -9 15 -20 0 -13 7 -20 20 -20 11 0 20 7 20 15 0
18 12 19 28 3 15 -15 15 -4 1 45 -13 46 -26 47 -35 2z"/>
<path d="M1557 503 c-11 -10 -8 -83 3 -83 6 0 10 7 10 15 0 7 8 19 18 24 16
10 16 10 0 11 -10 0 -18 5 -18 10 0 6 5 10 10 10 6 0 10 5 10 10 0 11 -23 14
-33 3z"/>
<path d="M1751 463 c0 -29 3 -53 7 -53 4 0 6 17 4 38 -6 64 -10 69 -11 15z"/>
<path d="M1793 503 c-15 -5 -17 -51 -4 -72 6 -10 13 -10 28 -2 33 17 10 86
-24 74z m27 -43 c0 -11 -7 -20 -15 -20 -8 0 -15 9 -15 20 0 11 7 20 15 20 8 0
15 -9 15 -20z"/>
<path d="M1892 498 c-2 -21 -13 -23 -30 -6 -9 9 -12 2 -12 -31 0 -36 2 -41 14
-32 11 9 15 9 19 -1 9 -26 18 1 14 43 -2 24 -4 36 -5 27z"/>
<path d="M1967 503 c-4 -3 -7 -23 -7 -44 l0 -38 58 1 c43 0 51 2 35 9 -27 10
-30 26 -5 32 16 4 16 5 0 6 -10 0 -18 8 -18 16 0 25 -29 5 -32 -23 -2 -14 -9
-27 -16 -30 -9 -3 -11 6 -6 37 6 40 4 48 -9 34z"/>
<path d="M2088 470 c5 -50 20 -52 25 -2 l4 37 1 -42 c2 -42 22 -63 22 -23 0
27 16 25 24 -2 7 -22 8 -22 15 -4 7 18 8 18 14 3 15 -39 46 -9 47 46 0 30 -19
18 -23 -15 -4 -32 -4 -32 -5 5 -2 41 -18 50 -25 15 l-4 -23 -2 23 c-1 27 -21
30 -21 2 0 -11 -4 -20 -10 -20 -5 0 -10 9 -10 20 0 15 -7 20 -28 20 -26 0 -27
-2 -24 -40z"/>
<path d="M2390 472 c0 -47 5 -53 36 -42 15 6 24 6 24 0 0 -6 10 -10 22 -10 17
0 19 3 10 12 -17 17 -15 26 6 31 15 4 15 5 -2 6 -13 1 -17 7 -13 21 4 16 2 18
-11 11 -10 -5 -26 -5 -37 0 -33 13 -35 11 -35 -29z m40 -7 c0 -8 -4 -17 -10
-20 -6 -4 -10 5 -10 20 0 15 4 24 10 20 6 -3 10 -12 10 -20z"/>
<path d="M2607 503 c-4 -3 -7 -24 -7 -46 0 -50 6 -45 14 11 5 43 5 47 -7 35z"/>
<path d="M2649 463 c4 -52 7 -49 13 10 2 22 0 37 -7 37 -6 0 -9 -18 -6 -47z"/>
<path d="M2826 495 c3 -7 -1 -27 -10 -43 l-15 -30 32 -5 c22 -4 36 0 45 11 12
16 14 15 28 -2 17 -24 18 -8 2 46 -14 47 -29 45 -43 -8 -7 -30 -14 -39 -27
-36 -16 3 -16 6 -3 32 18 36 18 37 1 43 -10 4 -13 1 -10 -8z"/>
<path d="M2930 461 l0 -51 31 4 c17 2 35 10 40 17 6 10 9 11 9 2 0 -7 9 -13
20 -13 17 0 20 6 18 48 -1 43 -2 44 -5 10 -5 -45 -23 -51 -23 -8 0 17 -4 30
-10 30 -5 0 -10 -12 -10 -26 0 -23 -2 -25 -16 -13 -8 7 -13 21 -11 31 3 10 1
18 -4 18 -5 0 -9 -5 -9 -11 0 -8 -5 -8 -15 1 -13 11 -15 6 -15 -39z m44 -4
c12 -19 3 -32 -19 -24 -17 7 -21 51 -3 45 6 -2 16 -12 22 -21z"/>
<path d="M3251 494 c0 -11 3 -14 6 -6 3 7 2 16 -1 19 -3 4 -6 -2 -5 -13z"/>
<path d="M3350 488 c0 -21 -1 -21 -13 -3 -13 17 -14 15 -21 -15 -3 -19 -2 -38
4 -44 7 -7 10 -4 10 10 1 17 2 17 13 4 15 -20 68 -24 79 -8 6 10 10 10 17 0
15 -25 46 -9 51 26 7 44 24 41 31 -5 l6 -38 2 36 c0 20 4 39 8 42 10 11 34
-44 28 -65 -8 -22 13 -25 22 -3 3 9 -2 24 -11 34 -19 21 -21 37 -3 45 6 3 -10
4 -38 3 -49 -2 -50 -3 -55 -36 -7 -47 -30 -53 -30 -8 0 27 -5 36 -22 41 -36 9
-46 7 -51 -11 -4 -17 -5 -17 -6 0 -2 25 -21 21 -21 -5z m60 2 c0 -5 -4 -10
-10 -10 -5 0 -10 5 -10 10 0 6 5 10 10 10 6 0 10 -4 10 -10z m17 -32 c-3 -8
-6 -5 -6 6 -1 11 2 17 5 13 3 -3 4 -12 1 -19z m-17 -19 c0 -5 -4 -9 -10 -9 -5
0 -10 7 -10 16 0 8 5 12 10 9 6 -3 10 -10 10 -16z"/>
<path d="M3707 503 c-4 -3 -7 -24 -7 -45 0 -37 1 -38 35 -35 20 1 35 7 35 15
0 6 4 12 9 12 5 0 11 -6 14 -12 10 -29 16 1 6 35 -10 37 -22 46 -34 26 -4 -6
-14 -8 -22 -5 -8 3 -11 1 -8 -5 10 -14 -3 -59 -17 -59 -7 0 -9 14 -5 40 5 42
5 44 -6 33z m70 -35 c-3 -8 -6 -5 -6 6 -1 11 2 17 5 13 3 -3 4 -12 1 -19z"/>
<path d="M3820 478 c0 -20 5 -40 10 -43 6 -3 10 2 10 12 1 14 4 13 15 -7 16
-29 16 -29 20 28 2 23 -1 42 -6 42 -5 0 -9 -10 -9 -22 l0 -23 -20 25 -20 25 0
-37z"/>
<path d="M3900 465 c0 -38 3 -45 20 -45 12 0 20 7 21 18 0 12 3 10 11 -8 10
-22 12 -23 15 -7 8 30 -7 89 -20 84 -7 -2 -15 -17 -18 -33 -5 -21 -7 -23 -9
-9 -1 11 -2 26 -1 33 1 6 -3 12 -9 12 -5 0 -10 -20 -10 -45z"/>
<path d="M3993 460 c0 -30 2 -43 4 -27 2 15 2 39 0 55 -2 15 -4 2 -4 -28z"/>
<path d="M690 480 c-1 -22 -2 -23 -11 -7 -5 9 -21 17 -34 17 -22 0 -25 -5 -25
-35 0 -40 21 -55 46 -34 13 10 17 10 25 -2 6 -11 9 -8 9 11 l0 25 20 -25 19
-25 9 24 9 25 6 -23 c10 -38 42 -23 42 19 0 33 -2 35 -37 37 -29 1 -38 -3 -38
-15 0 -13 -5 -11 -20 8 l-20 25 0 -25z m107 -34 c-4 -9 -11 -16 -17 -16 -11 0
-14 33 -3 43 11 11 26 -10 20 -27z m-137 4 c0 -11 -7 -20 -15 -20 -17 0 -18 2
-9 24 9 23 24 20 24 -4z"/>
<path d="M906 485 c-3 -8 2 -22 12 -31 12 -13 13 -19 4 -22 -6 -2 -12 -8 -12
-13 0 -10 49 -7 67 4 7 4 14 3 18 -3 10 -16 35 -11 35 8 1 16 1 16 14 0 19
-26 27 -22 14 7 -9 19 -9 28 0 37 18 18 14 32 -4 17 -12 -10 -17 -10 -23 0 -6
9 -10 8 -15 -6 -7 -17 -8 -17 -17 0 -15 26 -26 21 -33 -15 -6 -30 -6 -31 -26
-13 -12 10 -18 25 -16 32 3 7 1 13 -3 13 -5 0 -11 -7 -15 -15z"/>
<path d="M1080 454 c0 -41 2 -45 23 -42 19 3 22 10 24 48 l2 45 -10 -42 c-13
-56 -34 -58 -25 -3 4 25 2 40 -4 40 -5 0 -10 -21 -10 -46z"/>
<path d="M1151 460 c1 -25 3 -37 6 -27 6 25 31 21 36 -5 2 -13 5 -1 6 26 1 44
-1 48 -13 31 -13 -18 -13 -18 -24 1 -10 16 -11 12 -11 -26z"/>
<path d="M1220 460 c0 -22 5 -40 10 -40 6 0 10 18 10 40 0 22 -4 40 -10 40 -5
0 -10 -18 -10 -40z"/>
<path d="M1250 460 c0 -38 20 -60 20 -22 1 16 1 16 14 0 19 -25 26 -22 26 11
0 29 -20 56 -20 29 -1 -9 -5 -7 -14 5 -20 26 -26 21 -26 -23z"/>
<path d="M1618 465 c-2 -19 0 -41 4 -48 4 -7 8 9 8 36 0 55 -6 62 -12 12z"/>
<path d="M1646 475 c-4 -14 -2 -34 4 -45 11 -21 30 -27 30 -10 0 6 -4 10 -10
10 -15 0 -12 57 3 63 7 4 6 6 -4 6 -10 1 -19 -10 -23 -24z"/>
<path d="M2260 455 c0 -25 5 -45 10 -45 6 0 10 10 10 22 0 21 0 21 15 2 13
-16 16 -17 25 -4 6 10 10 11 10 3 0 -18 39 -16 46 2 9 23 -5 65 -22 65 -8 0
-17 -7 -20 -15 -8 -21 -24 -19 -25 3 0 14 -2 14 -9 -3 -7 -18 -8 -19 -15 -2
-13 31 -25 18 -25 -28z m97 -12 c-4 -17 -4 -17 -12 0 -4 9 -4 25 0 35 8 16 8
16 12 0 3 -10 3 -26 0 -35z"/>
<path d="M2731 481 c-1 -23 -2 -24 -21 -6 -22 19 -28 7 -7 -14 10 -10 8 -15
-7 -27 -19 -14 -19 -14 2 -14 12 0 22 5 22 10 0 6 8 5 20 -2 25 -16 40 1 40
45 0 42 -20 32 -21 -10 l-1 -38 -13 40 c-10 30 -14 34 -14 16z"/>
<path d="M3280 465 c0 -19 5 -35 10 -35 6 0 10 16 10 35 0 19 -4 35 -10 35 -5
0 -10 -16 -10 -35z"/>
<path d="M3601 469 c-1 -43 20 -67 38 -45 9 10 9 24 2 48 l-9 33 -2 -40 -2
-40 -13 40 -13 40 -1 -36z"/>
<path d="M561 446 c1 -22 3 -33 6 -23 5 18 23 24 23 7 0 -5 4 -10 8 -10 5 0 8
15 8 34 -1 28 -5 33 -23 33 -20 0 -23 -4 -22 -41z"/>
<path d="M1710 452 c0 -23 5 -42 10 -42 7 0 8 14 4 38 -9 51 -14 53 -14 4z"/>
<path d="M2571 478 c0 -9 -4 -25 -7 -35 -5 -14 -4 -15 5 -7 7 7 11 22 8 35 -2
13 -5 16 -6 7z"/>
<path d="M3220 428 c0 -4 7 -8 15 -8 8 0 15 4 15 8 0 5 -7 9 -15 9 -8 0 -15
-4 -15 -9z"/>
<path d="M784 350 c-42 -17 -31 -93 10 -77 14 6 16 14 11 38 -5 22 -4 29 4 25
6 -4 11 -25 11 -47 0 -29 4 -39 16 -39 9 0 18 9 21 20 6 24 19 26 27 4 12 -32
17 -5 6 35 -13 49 -24 52 -38 9 l-10 -33 -1 38 c-1 39 -13 45 -57 27z m6 -45
c0 -14 -4 -25 -10 -25 -5 0 -10 11 -10 25 0 14 5 25 10 25 6 0 10 -11 10 -25z"/>
<path d="M1137 353 c-13 -12 -7 -51 9 -57 8 -3 12 -11 9 -17 -4 -6 -14 -8 -22
-4 -13 4 -14 3 -4 -9 7 -8 19 -12 27 -9 19 7 18 53 -1 53 -21 0 -19 27 3 39
14 9 15 10 1 11 -9 0 -19 -3 -22 -7z"/>
<path d="M1188 338 c-2 -38 2 -61 14 -75 25 -30 50 33 32 81 -10 25 -44 20
-46 -6z m34 -50 c-2 -10 -8 -18 -13 -18 -11 0 -12 64 -2 74 10 10 21 -33 15
-56z"/>
<path d="M1260 341 c0 -11 5 -23 10 -26 17 -10 11 -45 -7 -45 -13 0 -14 -3 -5
-12 8 -8 15 -8 27 2 20 16 19 39 -2 62 -15 17 -15 20 -3 28 13 8 12 10 -2 10
-11 0 -18 -8 -18 -19z"/>
<path d="M1311 313 c-1 -29 4 -53 9 -53 6 0 10 9 10 20 0 27 14 25 28 -2 10
-22 11 -22 10 7 0 17 -4 41 -8 55 -8 24 -8 24 -9 3 -1 -13 -5 -23 -9 -23 -5 0
-14 10 -20 23 -9 19 -11 15 -11 -30z"/>
<path d="M1919 313 c4 -49 9 -44 25 20 5 22 3 27 -11 27 -15 0 -18 -7 -14 -47z"/>
<path d="M2121 319 c1 -24 4 -34 6 -21 4 19 7 21 19 11 8 -6 14 -18 14 -25 0
-8 5 -14 10 -14 11 0 11 21 0 65 -5 18 -8 22 -9 11 -1 -18 -2 -18 -21 -1 -20
18 -20 17 -19 -26z"/>
<path d="M2414 335 c-8 -31 3 -75 17 -75 8 0 8 4 0 13 -6 8 -8 17 -4 20 13 13
30 7 41 -15 10 -21 11 -19 11 19 1 23 -3 45 -9 48 -5 3 -10 -3 -10 -14 0 -12
-6 -21 -14 -21 -22 0 -30 19 -16 35 9 10 9 15 1 15 -6 0 -13 -11 -17 -25z"/>
<path d="M2506 352 c-3 -5 1 -9 9 -9 8 0 12 4 9 9 -3 4 -7 8 -9 8 -2 0 -6 -4
-9 -8z"/>
<path d="M2540 313 c1 -37 3 -44 11 -30 15 26 37 21 42 -10 2 -16 4 -1 5 32 0
37 -3 51 -7 36 -8 -31 -31 -40 -31 -12 0 11 -4 23 -10 26 -6 4 -10 -12 -10
-42z"/>
<path d="M3240 314 c0 -27 4 -43 10 -39 6 3 10 13 10 21 0 8 5 14 10 14 6 0
10 -12 10 -26 0 -14 4 -23 10 -19 6 3 10 26 10 51 0 24 -4 44 -10 44 -5 0 -10
-9 -10 -20 0 -11 -4 -20 -10 -20 -5 0 -10 9 -10 20 0 11 -4 20 -10 20 -5 0
-10 -21 -10 -46z"/>
<path d="M3548 353 c7 -3 12 -24 12 -54 0 -27 5 -49 10 -49 6 0 10 19 10 43 0
24 5 48 12 55 9 9 4 12 -22 11 -19 0 -29 -3 -22 -6z"/>
<path d="M3760 324 c0 -24 -5 -34 -15 -34 -17 0 -20 -16 -4 -26 16 -10 29 9
32 44 3 40 18 36 34 -9 9 -25 19 -30 12 -6 0 1 4 14 10 30 7 17 7 27 1 27 -6
0 -10 -6 -10 -12 -1 -9 -4 -8 -13 2 -7 8 -20 16 -29 16 -14 1 -18 -6 -18 -32z"/>
<path d="M3849 339 c-15 -29 -3 -69 21 -69 10 0 22 9 25 20 14 46 -25 87 -46
49z m31 -29 c0 -11 -4 -20 -10 -20 -5 0 -10 9 -10 20 0 11 5 20 10 20 6 0 10
-9 10 -20z"/>
<path d="M556 335 c-3 -9 3 -23 14 -32 24 -21 27 -48 4 -39 -8 3 -12 2 -9 -4
9 -15 25 -12 32 5 3 9 -3 25 -13 37 -14 15 -16 22 -6 25 16 6 15 23 -2 23 -8
0 -16 -7 -20 -15z"/>
<path d="M615 327 c-8 -29 11 -70 28 -64 7 2 12 21 12 43 0 47 -30 62 -40 21z
m35 -16 c0 -11 -4 -22 -9 -25 -11 -7 -20 14 -13 32 7 19 22 14 22 -7z"/>
<path d="M680 304 c0 -29 4 -43 11 -39 6 4 8 14 5 24 -4 9 1 6 12 -7 22 -28
32 -20 32 25 0 33 -19 48 -21 16 0 -14 -3 -13 -11 5 -17 35 -28 26 -28 -24z"/>
<path d="M950 300 c0 -28 5 -50 10 -50 6 0 10 6 9 13 -1 6 0 21 1 32 1 16 4
15 12 -8 8 -21 15 -27 29 -24 11 3 19 1 19 -4 0 -15 28 -10 34 7 20 52 -12
113 -37 68 -10 -17 -11 -17 -18 1 -7 17 -8 18 -8 3 -1 -22 -17 -24 -25 -3 -12
32 -26 13 -26 -35z m110 6 c0 -14 -4 -28 -10 -31 -6 -4 -10 7 -10 24 0 17 5
31 10 31 6 0 10 -11 10 -24z"/>
<path d="M1386 308 c9 -59 14 -60 14 -5 0 26 -5 47 -10 47 -6 0 -8 -16 -4 -42z"/>
<path d="M1425 316 c-5 -24 -3 -42 4 -49 8 -8 11 -6 11 7 0 16 1 16 16 2 23
-23 27 -19 9 8 -13 19 -14 29 -5 45 7 14 7 21 0 21 -5 0 -10 -6 -10 -12 0 -9
-3 -9 -9 1 -7 11 -11 5 -16 -23z"/>
<path d="M1491 308 c-1 -27 3 -48 7 -48 4 0 6 17 4 38 -5 58 -10 62 -11 10z"/>
<path d="M1578 343 c7 -3 16 -2 19 1 4 3 -2 6 -13 5 -11 0 -14 -3 -6 -6z"/>
<path d="M1622 313 c4 -49 33 -58 43 -14 8 37 1 51 -26 51 -17 0 -20 -6 -17
-37z m28 -3 c0 -16 -4 -30 -10 -30 -5 0 -10 14 -10 30 0 17 5 30 10 30 6 0 10
-13 10 -30z"/>
<path d="M1720 310 c0 -44 19 -61 44 -41 7 6 22 8 32 4 16 -5 17 -4 8 8 -13
15 -2 59 15 59 14 0 19 -22 10 -47 -5 -13 -5 -23 1 -23 15 0 22 38 10 60 -12
23 -30 26 -48 8 -9 -9 -15 -9 -24 0 -7 7 -20 12 -30 12 -14 0 -18 -8 -18 -40z
m45 10 c8 -24 -1 -40 -21 -40 -8 0 -14 10 -14 23 0 40 24 51 35 17z"/>
<path d="M1970 336 c0 -8 5 -18 11 -22 6 -3 9 -16 7 -28 -4 -19 0 -22 29 -23
l33 -1 -2 46 c-1 44 -2 45 -5 10 -5 -48 -23 -50 -23 -3 0 31 -3 35 -25 35 -15
0 -25 -6 -25 -14z m40 -16 c0 -11 -2 -20 -5 -20 -2 0 -9 9 -15 20 -9 16 -8 20
5 20 8 0 15 -9 15 -20z"/>
<path d="M2197 344 c-13 -14 -7 -65 8 -71 21 -7 26 -1 28 38 2 32 -18 51 -36
33z m20 -51 c-4 -17 -4 -17 -12 0 -4 9 -4 25 0 35 8 16 8 16 12 0 3 -10 3 -26
0 -35z"/>
<path d="M2327 329 c-4 -14 -2 -19 8 -15 7 2 16 -3 20 -12 5 -15 8 -13 20 8
l13 25 5 -35 c4 -33 4 -33 5 8 2 44 -10 55 -27 25 -9 -17 -10 -17 -16 0 -9 23
-21 22 -28 -4z"/>
<path d="M2627 343 c-4 -3 -7 -21 -7 -40 0 -37 21 -53 45 -33 9 7 15 8 15 2 0
-16 33 -24 42 -10 11 19 10 90 -2 83 -5 -3 -10 -22 -10 -41 0 -19 -4 -34 -10
-34 -5 0 -10 19 -11 43 0 32 -2 37 -9 22 -7 -18 -8 -19 -15 -2 -7 17 -26 23
-38 10z m24 -54 c-8 -21 -10 -22 -16 -6 -10 23 2 54 16 40 6 -6 6 -18 0 -34z"/>
<path d="M2807 339 c-35 -20 -9 -90 28 -75 19 7 20 46 1 46 -9 0 -12 -7 -9
-20 4 -16 2 -19 -11 -14 -23 9 -20 43 6 53 12 4 17 10 12 14 -5 3 -17 1 -27
-4z"/>
<path d="M2877 343 c-12 -20 -18 -73 -9 -73 6 0 13 6 15 13 4 9 8 8 16 -3 9
-12 11 -10 11 12 0 45 -19 74 -33 51z"/>
<path d="M2967 343 c-11 -11 -8 -61 5 -69 7 -4 8 -3 4 5 -12 19 2 59 22 64 14
4 13 5 -4 6 -11 0 -24 -2 -27 -6z"/>
<path d="M3027 343 c-4 -3 -7 -14 -7 -24 0 -13 -6 -16 -22 -12 -17 3 -19 2 -9
-5 8 -6 11 -17 7 -27 -5 -14 -4 -15 7 -7 10 8 17 8 24 1 6 -6 17 -8 23 -4 9 6
9 10 -1 16 -12 8 -11 11 1 20 12 8 12 12 2 16 -10 4 -10 8 -1 19 9 11 8 14 -3
14 -8 0 -18 -3 -21 -7z"/>
<path d="M3091 306 c-1 -45 0 -48 13 -31 13 18 14 18 20 -3 11 -35 36 -27 37
11 0 32 0 32 12 7 11 -25 11 -24 15 12 2 24 9 38 20 41 13 4 12 5 -4 6 -12 0
-25 -7 -29 -16 -7 -17 -8 -16 -15 2 -7 16 -9 12 -9 -17 -1 -21 -6 -38 -12 -38
-8 0 -10 12 -6 36 6 35 5 36 -13 19 -17 -16 -19 -15 -23 2 -3 10 -5 -4 -6 -31z"/>
<path d="M3312 312 c-2 -40 0 -43 21 -40 16 2 23 11 25 32 2 16 -1 33 -7 39
-8 8 -11 0 -11 -26 0 -48 -18 -48 -23 1 l-4 37 -1 -43z"/>
<path d="M3412 310 c0 -36 2 -40 7 -20 l8 25 13 -27 c18 -37 30 -26 29 25 -1
23 -4 32 -6 20 -2 -13 -8 -23 -12 -23 -5 0 -16 10 -24 23 -16 21 -16 21 -15
-23z"/>
<path d="M3616 335 c-23 -23 -17 -60 9 -60 22 0 32 34 17 61 -8 14 -10 14 -26
-1z m24 -30 c0 -14 -4 -25 -10 -25 -5 0 -10 11 -10 25 0 14 5 25 10 25 6 0 10
-11 10 -25z"/>
<path d="M3673 315 c2 -33 6 -40 22 -40 16 0 20 7 22 40 2 42 -1 39 -12 -9 -7
-34 -14 -29 -26 16 -8 33 -8 33 -6 -7z"/>
<path d="M3910 310 c0 -43 24 -66 41 -39 12 19 11 79 -1 79 -5 0 -10 -17 -11
-37 0 -29 -2 -33 -8 -18 -5 11 -6 25 -4 31 2 7 0 15 -6 19 -7 4 -11 -8 -11
-35z"/>
<path d="M1878 310 c-3 -17 -1 -33 4 -36 4 -3 8 11 8 30 0 44 -6 47 -12 6z"/>
<path d="M3493 305 c0 -22 2 -30 4 -17 2 12 2 30 0 40 -3 9 -5 -1 -4 -23z"/>
<path d="M1581 313 c0 -10 4 -27 9 -38 7 -16 9 -13 9 18 1 20 -3 37 -9 37 -5
0 -10 -8 -9 -17z"/>
<path d="M2500 312 c0 -6 5 -14 10 -17 16 -10 11 -28 -6 -21 -10 4 -14 1 -12
-6 3 -7 11 -13 19 -13 20 0 23 39 4 55 -9 8 -15 8 -15 2z"/>
<path d="M111 168 c1 -40 2 -41 9 -13 l7 30 7 -27 c5 -16 13 -28 18 -28 5 0 8
3 6 8 -3 4 -10 22 -17 40 -18 45 -31 40 -30 -10z"/>
<path d="M552 170 c0 -25 2 -39 5 -32 4 10 8 10 19 1 19 -16 18 -43 -2 -35 -8
3 -12 2 -9 -4 3 -6 13 -10 21 -10 10 0 14 13 14 50 0 43 -3 50 -19 50 -11 0
-22 6 -24 13 -3 6 -5 -8 -5 -33z m38 -11 c0 -11 -4 -17 -10 -14 -5 3 -10 13
-10 21 0 8 5 14 10 14 6 0 10 -9 10 -21z"/>
<path d="M650 190 c0 -11 -5 -19 -12 -17 -6 1 -13 -14 -15 -35 -3 -23 0 -38 6
-38 6 0 11 6 11 14 0 8 7 16 15 20 10 4 15 -1 16 -17 1 -14 4 -9 8 13 8 43 3
69 -10 48 -7 -10 -9 -9 -9 5 0 9 6 17 14 17 15 0 25 -27 27 -75 1 -23 3 -25 6
-8 5 23 33 22 33 -2 0 -7 9 -15 20 -18 13 -3 20 0 20 9 0 8 7 14 15 14 25 0
31 31 9 48 -16 12 -16 14 -1 9 9 -4 17 -2 17 3 0 14 -84 12 -98 -2 -9 -9 -12
-8 -12 4 0 16 -20 28 -46 28 -8 0 -14 -9 -14 -20z m100 -30 c0 -11 -4 -20 -9
-20 -14 0 -23 18 -16 30 10 17 25 11 25 -10z m40 0 c11 -11 16 -20 11 -20 -10
0 -41 28 -41 36 0 9 11 3 30 -16z m-24 -47 c-10 -10 -19 5 -10 18 6 11 8 11
12 0 2 -7 1 -15 -2 -18z"/>
<path d="M932 175 c-19 -19 -39 -35 -45 -35 -7 0 -3 7 7 15 24 18 13 32 -29
37 -19 2 -30 -1 -29 -9 1 -7 2 -29 3 -50 0 -20 4 -33 8 -30 3 4 6 23 5 42 -1
19 3 35 9 35 6 0 7 -5 4 -10 -10 -16 18 -71 35 -68 8 2 19 18 24 35 6 18 16
35 24 38 10 4 12 0 8 -11 -4 -9 -1 -23 6 -31 9 -11 9 -16 -3 -24 -11 -7 -10
-9 5 -9 16 0 18 6 13 43 l-6 42 14 -30 c8 -16 15 -37 16 -45 0 -8 5 1 10 20
10 43 3 71 -17 63 -7 -3 -14 0 -14 6 0 19 -13 12 -48 -24z m-22 -49 c0 -3 -4
-8 -10 -11 -5 -3 -10 -1 -10 4 0 6 5 11 10 11 6 0 10 -2 10 -4z"/>
<path d="M1025 159 c4 -49 10 -67 20 -58 7 8 -7 109 -16 109 -4 0 -6 -23 -4
-51z"/>
<path d="M1145 200 c-4 -6 -14 -9 -21 -6 -12 5 -14 -2 -8 -32 3 -20 11 -41 17
-47 7 -7 8 -7 4 0 -3 6 0 24 7 40 l13 30 6 -27 c4 -16 11 -28 16 -28 10 0 24
60 16 68 -3 3 -5 -3 -5 -14 -1 -18 -2 -17 -20 4 -12 14 -21 18 -25 12z"/>
<path d="M1271 193 c-1 -26 -11 -29 -29 -11 -9 9 -15 9 -24 0 -7 -7 -8 -12 -4
-12 5 0 3 -7 -5 -16 -8 -10 -9 -18 -2 -22 5 -4 13 -14 16 -22 4 -12 6 -11 6 3
1 9 7 17 15 17 8 0 17 6 19 13 3 6 6 -4 6 -23 1 -19 5 -30 9 -25 4 6 18 10 32
10 21 0 26 5 28 31 2 24 -3 35 -22 48 -26 16 -26 16 -27 -11 -2 -25 -2 -25 -9
7 -5 23 -8 27 -9 13z m55 -55 c-1 -12 -8 -24 -14 -26 -8 -2 -11 5 -8 20 3 12
5 27 5 31 1 5 5 5 11 2 5 -3 8 -16 6 -27z"/>
<path d="M2480 187 c0 -18 -5 -27 -16 -27 -8 0 -13 4 -10 8 2 4 1 14 -5 22 -6
11 -9 3 -9 -25 0 -22 5 -47 11 -55 8 -12 9 -10 7 9 -2 13 3 26 10 28 7 3 12
-5 12 -22 0 -21 4 -26 16 -21 9 3 18 6 20 6 2 0 4 7 4 15 0 21 28 19 33 -2 3
-10 5 -4 5 12 1 17 -5 41 -13 55 l-13 25 -11 -28 c-6 -16 -11 -33 -11 -38 0
-5 -4 -9 -8 -9 -4 0 -9 14 -10 32 -3 40 -12 51 -12 15z"/>
<path d="M3052 165 c0 -27 2 -44 5 -37 4 10 9 10 23 -3 15 -14 18 -14 30 0 16
19 30 19 30 0 0 -22 40 -19 40 3 1 16 1 16 14 0 17 -23 26 -13 26 31 -1 34 -2
35 -15 17 -14 -18 -15 -18 -22 -1 -5 15 -9 11 -18 -21 l-12 -39 -8 38 c-9 45
-17 47 -37 5 -14 -29 -17 -31 -24 -14 -5 13 -2 23 11 32 16 12 17 14 3 14 -9
0 -20 -6 -24 -12 -6 -9 -10 -5 -15 12 -5 18 -7 11 -7 -25z"/>
<path d="M3237 189 c-6 -25 -3 -67 8 -77 3 -3 5 1 5 8 0 9 5 7 15 -6 14 -18
15 -16 9 19 -4 24 -2 37 5 37 6 0 11 -16 11 -35 0 -29 4 -35 22 -35 21 0 21 1
3 13 -17 13 -17 15 6 30 19 14 20 17 6 17 -20 0 -23 26 -4 33 6 2 9 7 6 10 -3
4 -22 -2 -42 -12 -36 -18 -36 -18 -39 3 -3 19 -4 19 -11 -5z"/>
<path d="M3390 156 c0 -62 15 -79 40 -46 l17 23 6 -22 c5 -21 37 -30 37 -11 0
6 -4 10 -10 10 -5 0 -10 7 -10 15 0 8 7 15 15 15 8 0 15 5 15 10 0 6 -7 10
-15 10 -18 0 -20 36 -2 43 6 3 2 6 -10 6 -15 1 -23 -5 -23 -15 0 -14 -1 -14
-16 0 -31 31 -44 20 -44 -38z m38 -3 c-2 -21 -7 -38 -13 -38 -5 0 -11 17 -13
38 -3 29 0 37 13 37 13 0 16 -8 13 -37z"/>
<path d="M3518 153 c2 -32 6 -60 8 -62 8 -9 12 6 16 62 4 48 2 57 -12 57 -14
0 -16 -9 -12 -57z"/>
<path d="M3568 204 c-12 -11 -10 -104 2 -104 6 0 10 9 10 19 0 11 5 23 10 26
6 4 10 -5 10 -19 0 -14 5 -26 10 -26 13 0 13 80 0 100 -8 12 -10 9 -10 -12 0
-35 -18 -37 -22 -2 -2 14 -6 22 -10 18z"/>
<path d="M520 172 c0 -17 3 -33 8 -35 9 -6 8 50 -1 60 -4 3 -7 -8 -7 -25z"/>
<path d="M1739 158 c-7 -27 -19 -48 -26 -48 -16 0 -16 9 2 40 20 35 19 40 -12
40 -21 0 -24 -3 -14 -9 12 -8 13 -14 3 -36 -18 -38 -15 -45 17 -45 17 0 31 6
35 16 6 15 8 15 28 -2 20 -18 21 -18 15 -1 -4 10 -7 26 -7 36 0 9 -6 26 -14
37 -14 18 -15 16 -27 -28z"/>
<path d="M2091 186 c-10 -12 -17 -14 -25 -6 -19 19 -26 10 -25 -32 1 -24 3
-35 6 -25 5 20 19 23 26 5 3 -9 7 -7 12 6 7 16 9 15 21 -10 12 -29 12 -29 12
-4 0 14 -3 38 -7 54 -5 27 -7 28 -20 12z"/>
<path d="M2192 155 c0 -27 2 -42 5 -32 6 22 12 22 29 0 11 -15 15 -15 22 -5 8
11 10 11 15 -2 10 -24 36 -19 43 8 6 26 -10 66 -27 66 -6 0 -13 -9 -16 -20 -7
-27 -23 -25 -24 3 -1 21 -1 21 -8 -3 l-7 -25 -17 30 -16 30 1 -50z m101 -27
c-10 -21 -12 -21 -18 -5 -10 25 2 54 17 39 8 -8 8 -18 1 -34z"/>
<path d="M2617 193 c-11 -10 -8 -83 3 -83 6 0 10 20 10 45 0 46 -2 50 -13 38z"/>
<path d="M2643 185 c-3 -9 2 -24 11 -34 19 -21 21 -37 4 -44 -8 -4 -7 -6 3 -6
27 -1 32 30 9 54 -24 25 -19 31 24 33 46 3 44 12 -3 12 -28 0 -44 -5 -48 -15z"/>
<path d="M2755 186 c-16 -52 -13 -50 -43 -31 l-27 16 24 -20 c18 -17 21 -24
12 -35 -10 -12 -8 -13 9 -9 12 3 24 12 27 19 8 21 23 17 23 -7 0 -11 4 -18 8
-15 13 8 -1 89 -15 94 -7 2 -15 -3 -18 -12z"/>
<path d="M2823 150 c0 -30 2 -43 4 -28 2 16 2 40 0 56 -2 15 -4 2 -4 -28z"/>
<path d="M2901 160 c0 -34 2 -40 9 -25 5 11 9 14 9 6 1 -8 8 -11 20 -8 13 3
21 -1 24 -12 3 -9 5 5 6 32 1 49 -12 63 -23 25 l-6 -23 -20 25 -20 25 1 -45z"/>
<path d="M3350 163 c0 -21 5 -45 10 -53 7 -11 10 -2 10 32 0 26 -4 50 -10 53
-6 4 -10 -9 -10 -32z"/>
<path d="M502 160 c0 -19 2 -27 5 -17 2 9 2 25 0 35 -3 9 -5 1 -5 -18z"/>
<path d="M1056 170 c4 -14 8 -34 10 -45 1 -11 3 -22 4 -25 1 -3 8 15 15 40 8
24 12 46 10 49 -3 2 -5 -2 -5 -10 0 -11 -2 -11 -10 1 -9 13 -10 13 -10 0 0
-13 -1 -13 -11 0 -8 11 -9 9 -3 -10z"/>
<path d="M1354 175 c-9 -23 3 -45 23 -44 17 1 17 2 1 6 -10 2 -18 14 -18 25 0
14 5 18 15 14 8 -3 15 -1 15 4 0 16 -30 11 -36 -5z"/>
<path d="M1410 175 c-20 -24 -5 -46 30 -43 24 2 30 6 27 20 -3 9 1 19 9 22 9
3 14 -7 16 -37 l4 -42 8 43 c5 23 12 42 17 42 5 0 9 -19 10 -42 0 -32 2 -38 8
-23 5 11 8 31 7 45 -1 21 -6 25 -31 26 -16 1 -38 -2 -47 -7 -10 -6 -19 -5 -23
1 -9 14 -21 12 -35 -5z m30 -15 c0 -11 -7 -20 -15 -20 -15 0 -21 21 -8 33 12
13 23 7 23 -13z"/>
<path d="M1560 171 c0 -10 7 -21 15 -25 18 -7 20 -43 3 -49 -8 -2 -7 -3 2 -3
21 2 24 40 5 56 -20 16 -19 27 3 33 13 4 11 5 -5 6 -16 1 -23 -5 -23 -18z"/>
<path d="M1614 148 c1 -31 5 -44 17 -46 18 -3 33 44 18 54 -5 3 -9 -6 -9 -20
0 -42 -18 -30 -23 14 l-4 40 1 -42z"/>
<path d="M1801 148 c-1 -27 4 -48 9 -48 12 0 12 47 0 75 -6 15 -9 8 -9 -27z"/>
<path d="M1955 175 c-18 -55 -24 -61 -24 -25 -1 25 -4 31 -10 21 -8 -12 -13
-12 -24 -3 -12 10 -16 9 -21 -4 -9 -24 -7 -54 3 -54 5 0 11 10 13 23 4 21 5
21 18 -5 13 -28 40 -39 40 -17 0 6 9 9 20 6 16 -4 20 0 20 17 0 12 -6 31 -14
42 -14 19 -15 19 -21 -1z"/>
<path d="M2141 176 c-16 -19 -10 -71 8 -71 21 0 35 29 27 58 -7 30 -18 34 -35
13z m23 -39 c-3 -9 -10 -17 -15 -17 -11 0 -12 34 -2 44 11 11 24 -9 17 -27z"/>
<path d="M2323 183 c12 -3 17 -15 18 -41 l1 -37 7 31 c4 17 11 36 15 42 5 8
-3 12 -26 11 -18 -1 -25 -3 -15 -6z"/>
<path d="M2380 175 c-18 -21 -4 -65 20 -65 17 0 20 7 20 40 0 43 -17 53 -40
25z m30 -25 c0 -16 -4 -30 -9 -30 -12 0 -19 21 -13 43 7 28 22 20 22 -13z"/>
<path d="M3018 163 c-4 -36 -26 -41 -31 -6 l-4 28 -2 -26 c-1 -33 26 -60 40
-38 9 14 13 69 5 69 -3 0 -6 -12 -8 -27z"/>
<path d="M440 173 c0 -5 7 -16 14 -25 14 -19 26 -14 26 11 0 14 -2 14 -10 1
-8 -13 -10 -12 -10 3 0 9 -4 17 -10 17 -5 0 -10 -3 -10 -7z"/>
<path d="M1170 104 c0 -15 26 -19 34 -5 3 5 -3 11 -14 14 -13 3 -20 0 -20 -9z"/>
</g>
</svg>
